<svg height="511pt" viewBox="0 -7 511.9414 511" width="511pt" xmlns="http://www.w3.org/2000/svg"><path d="m227.585938 367.96875c0-.066406-.09375-.109375-.128907-.1875-14.304687-35.074219-54.3125-51.933594-89.40625-37.675781-35.089843 14.253906-52.007812 54.238281-37.800781 89.351562 14.210938 35.113281 54.171875 52.082031 89.300781 37.925781.652344.015626 1.28125-.222656 1.757813-.667968 34.367187-14.527344 50.582031-54.054688 36.320312-88.53125-.035156-.078125-.019531-.148438-.042968-.214844zm-37.605469 27.433594c0-.851563.058593-1.75 0-2.628906l24.359375-10.09375c1.738281 7.511718 1.738281 15.316406 0 22.828124zm-75.324219-12.722656 24.378906 10.105468c0 .851563-.058594 1.707032 0 2.625l-24.371094 10.097656c-1.730468-7.511718-1.734374-15.316406-.007812-22.828124zm41.972656 8.148437c1.167969-2.816406 3.746094-4.796875 6.769532-5.195313 3.023437-.398437 6.03125.847657 7.886718 3.265626 1.855469 2.417968 2.28125 5.640624 1.113282 8.460937-1.164063 2.816406-3.746094 4.796875-6.769532 5.191406-3.023437.398438-6.03125-.847656-7.886718-3.265625-1.855469-2.421875-2.28125-5.648437-1.113282-8.464844zm51.203125-23.890625-24.371093 10.101562c-.589844-.652343-1.214844-1.269531-1.871094-1.851562l10.105468-24.394531c6.527344 4.082031 12.046876 9.59375 16.136719 16.117187zm-31.898437-22.707031-10.113282 24.402343c-.851562-.042968-1.707031-.058593-2.621093 0l-10.101563-24.402343c3.742188-.890625 7.570313-1.351563 11.417969-1.367188 3.84375.019531 7.675781.480469 11.417969 1.367188zm-38.578125 6.59375 10.074219 24.320312c-.648438.589844-1.253907 1.222657-1.851563 1.871094l-24.328125-10.078125c4.0625-6.527344 9.5625-12.039062 16.078125-16.113281zm-16.15625 70.460937 24.371093-10.09375c.589844.648438 1.214844 1.261719 1.871094 1.84375l-10.113281 24.386719c-6.527344-4.089844-12.042969-9.609375-16.128906-16.136719zm31.898437 22.671875 10.101563-24.378906c.429687 0 .855469.121094 1.28125.121094s.90625-.078125 1.359375-.09375l10.09375 24.351562c-7.515625 1.730469-15.324219 1.726563-22.835938-.007812zm38.597656-6.535156-10.0625-24.292969c.652344-.613281 1.273438-1.257812 1.859376-1.929687l24.347656 10.085937c-4.09375 6.527344-9.613282 12.042969-16.144532 16.128906zm0 0"/><path d="m466.484375 367.96875c-14.484375-34.742188-54.359375-51.207031-89.136719-36.800781-34.773437 14.40625-51.328125 54.242187-37.003906 89.050781 14.085938 34.585938 53.527344 51.21875 88.125 37.164062.363281-.054687.722656-.128906 1.074219-.222656.226562-.136718.449219-.285156.65625-.445312 34.445312-14.570313 50.65625-54.21875 36.292969-88.746094zm-37.589844 27.441406c.050781-.875.050781-1.757812 0-2.636718l24.390625-10.101563c1.75 7.515625 1.75 15.328125 0 22.84375zm-75.332031-12.730468 24.40625 10.105468c-.042969.851563-.058594 1.707032 0 2.625l-24.363281 10.097656c-1.75-7.507812-1.765625-15.316406-.042969-22.828124zm53.121094 19.304687c-3.191406 1.316406-6.859375.585937-9.296875-1.855469-2.441407-2.441406-3.171875-6.113281-1.847657-9.300781.867188-2.085937 2.527344-3.742187 4.617188-4.605469 2.085938-.871094 4.4375-.871094 6.527344 0 2.089844.863282 3.753906 2.527344 4.617187 4.617188.867188 2.09375.867188 4.445312 0 6.535156-.859375 2.089844-2.519531 3.746094-4.609375 4.609375zm40.003906-35.046875-24.320312 10.066406c-.589844-.648437-1.214844-1.269531-1.867188-1.859375l10.074219-24.320312c6.527343 4.074219 12.039062 9.585937 16.113281 16.113281zm-31.855469-22.707031-10.09375 24.378906c-.855469-.042969-1.757812-.042969-2.636719 0l-10.105468-24.390625c7.503906-1.8125 15.332031-1.8125 22.835937 0zm-38.570312 6.59375 10.070312 24.320312c-.652343.589844-1.273437 1.210938-1.863281 1.859375l-24.316406-10.066406c4.066406-6.53125 9.578125-12.042969 16.109375-16.113281zm-16.164063 70.460937 24.371094-10.09375c.59375.644532 1.214844 1.261719 1.871094 1.84375l-10.078125 24.378906c-6.539063-4.082031-12.066407-9.597656-16.164063-16.128906zm31.898438 22.671875 10.105468-24.378906c.425782 0 .851563.128906 1.277344.128906.429688 0 .90625-.078125 1.359375-.101562l10.09375 24.351562c-7.515625 1.730469-15.324219 1.726563-22.835937-.007812zm38.597656-6.535156-10.0625-24.292969c.65625-.597656 1.265625-1.265625 1.871094-1.929687l24.335937 10.085937c-4.089843 6.53125-9.609375 12.046875-16.144531 16.128906zm0 0"/><path d="m74.179688 60.25c12.902343-.050781 25.761718-1.378906 38.402343-3.960938 4.621094-.941406 7.601563-5.453124 6.660157-10.074218-.941407-4.621094-5.453126-7.601563-10.074219-6.660156-21 5.046874-42.890625 5.132812-63.929688.257812-4.480469-1.480469-9.308593.949219-10.789062 5.425781-1.480469 4.476563.949219 9.304688 5.429687 10.785157 11.160156 3.097656 22.722656 4.519531 34.300782 4.226562zm0 0"/><path d="m312.976562 56.058594c11.164063 3.109375 22.722657 4.546875 34.304688 4.265625 12.890625-.078125 25.742188-1.429688 38.367188-4.035157 4.621093-.941406 7.601562-5.453124 6.660156-10.074218s-5.453125-7.601563-10.074219-6.660156c-21 5.046874-42.890625 5.132812-63.929687.257812-2.898438-.957031-6.085938-.296875-8.363282 1.730469-2.277344 2.03125-3.296875 5.121093-2.679687 8.105469.621093 2.988281 2.785156 5.417968 5.683593 6.375zm0 0"/><path d="m213.273438 68.78125c35.839843 0 46.859374-9.191406 48.699218-11.035156 3.386719-3.34375 3.46875-8.785156.191406-12.234375-1.542968-1.625-3.675781-2.554688-5.914062-2.589844-2.238281-.03125-4.394531.839844-5.984375 2.417969-.074219.058594-8.363281 6.375-36.992187 6.375-27.570313 0-36.273438-5.855469-36.957032-6.339844-3.421875-3.242188-8.824218-3.097656-12.066406.324219s-3.097656 8.824219.324219 12.066406c1.84375 1.824219 12.859375 11.015625 48.699219 11.015625zm0 0"/><path d="m486.339844 239.449219c14.140625 0 25.601562-11.460938 25.601562-25.601563 0-14.136718-11.460937-25.597656-25.601562-25.597656h-17.066406v-8.535156c0-14.136719-11.460938-25.601563-25.597657-25.601563-14.140625 0-25.601562 11.464844-25.601562 25.601563v76.875h-48.28125c35.371093-64.066406 73.78125-213.910156 48.640625-247.628906-5.582032-7.652344-15.65625-10.53125-24.441406-6.988282-41.292969 13.800782-98.0625 4.0625-114.6875.710938-2.003907-.382813-4.050782-.484375-6.082032-.300782h-.214844c-2.679687.164063-5.320312.722657-7.832031 1.664063-16.050781 5.992187-33.0625 8.988281-50.195312 8.839844-.5625 0-1.089844 0-1.707031 0h-.085938c-17.753906.332031-35.414062-2.691407-52.050781-8.90625-2.253907-.84375-4.617188-1.359375-7.015625-1.527344-.195313 0-.390625 0-.589844 0h-.296875c-2.054687-.164063-4.125-.058594-6.152344.316406-16.417969 3.308594-73.199219 13.054688-114.484375-.761719-8.585937-3.40625-18.394531-.660156-23.960937 6.714844-26.929688 34.824219 14.445312 198.792969 51.039062 260.558594-2.945312 4.941406-4.148437 10.730469-3.414062 16.433594l10.332031 78.507812c-11.523438 37.507813-.601562 78.304688 28.125 105.039063 28.726562 26.730469 70.203125 34.699219 106.789062 20.507812 36.582032-14.1875 61.84375-48.035156 65.03125-87.148437h34.875c.898438 10.523437 3.40625 20.847656 7.433594 30.609375 21.140625 50.039062 77.671875 74.867187 128.820313 56.570312 51.144531-18.296875 79.105469-73.347656 63.710937-125.441406l10.316406-78.660156c.980469-7.375-1.265624-14.8125-6.164062-20.414063-4.84375-5.523437-11.839844-8.691406-19.191406-8.695312h-17.066406v-17.140625zm-128 62.667969c-6.019532 2.945312-11.738282 6.480468-17.066406 10.546874v-39.003906h17.066406zm-49.492188 52.785156c-4.042968 9.773437-6.546875 20.113281-7.414062 30.652344h-34.910156c-1.527344-18.5625-8.140626-36.34375-19.117188-51.394532v-60.5h76.800781v55.464844c-6.355469 7.792969-11.53125 16.480469-15.359375 25.777344zm-228.691406-18.773438-6.992188-52.65625c-.328124-2.5.4375-5.019531 2.101563-6.914062 1.585937-1.847656 3.902344-2.90625 6.339844-2.898438h114.601562v23.140625c-43.148437-14.234375-90.507812 1.824219-116.101562 39.363281zm78.070312-315.175781c17.652344 6.144531 36.238282 9.183594 54.929688 8.984375h.238281c18.695313.214844 37.28125-2.824219 54.9375-8.976562 9.429688 25.113281 33.628907 112.605468-25.875 235.628906h-58.367187c-59.511719-123.039063-35.292969-210.53125-25.863282-235.636719zm55.046876 252.707031h17.066406v42.007813c-5.277344-4.4375-10.996094-8.324219-17.066406-11.605469zm186.085937-255.5c3.695313-1.246094 4.492187-.136718 5.359375 1.015625 18.390625 24.621094-18.039062 180.4375-54.730469 237.414063h-88.621093c53.640624-115.992188 35.976562-202.050782 25.140624-235.238282 24.617188 4.132813 74.230469 9.738282 112.851563-3.191406zm-377.230469.949219c.851563-1.074219 1.628906-2.089844 5.042969-.957031 38.691406 12.945312 88.414063 7.296875 112.859375 3.199218-10.828125 33.1875-28.492188 119.246094 25.148438 235.238282h-83.574219c-2.957031.046875-5.882813.605468-8.644531 1.65625-36.171876-62.941406-69.332032-215.160156-50.832032-239.136719zm221.21875 407.636719c-15.578125 37.671875-55.601562 59.085937-95.585937 51.148437-39.984375-7.941406-68.785157-43.027343-68.785157-83.792969 0-40.765624 28.800782-75.847656 68.785157-83.789062s80.007812 13.472656 95.585937 51.144531c8.679688 20.898438 8.679688 44.390625 0 65.289063zm238.933594 0c-15.644531 37.53125-55.582031 58.828125-95.464844 50.898437-39.878906-7.925781-68.636718-42.878906-68.734375-83.539062v-.042969c.03125-40.695312 28.792969-75.703125 68.707031-83.632812 39.917969-7.925782 79.875 13.433593 95.457032 51.027343.980468 2.363281 1.808594 4.769531 2.558594 7.1875 6.046874 19.058594 5.140624 39.644531-2.550782 58.101563zm10.433594-150.1875c1.660156 1.902344 2.421875 4.429687 2.082031 6.929687l-6.917969 52.753907c-19.0625-27.875-50.644531-44.550782-84.414062-44.570313-9.488282.011719-18.929688 1.335937-28.058594 3.933594v-21.945313h110.933594c2.441406-.007812 4.757812 1.050782 6.351562 2.898438zm-57.574219-19.96875v-76.875c0-4.710938 3.820313-8.535156 8.535156-8.535156 4.710938 0 8.53125 3.824218 8.53125 8.535156v17.066406c0 4.714844 3.820313 8.535156 8.535157 8.535156h25.597656c4.714844 0 8.535156 3.820313 8.535156 8.53125 0 4.714844-3.820312 8.535156-8.535156 8.535156h-25.597656c-4.714844 0-8.535157 3.820313-8.535157 8.53125v25.675782zm0 0"/></svg>