<svg height="511pt" viewBox="0 -7 511.90169 511" width="511pt" xmlns="http://www.w3.org/2000/svg"><path d="m247.796875 265.105469v1.792969l-69.035156 1.109374-.085938-2.902343c-72.109375-144.894531-30.292969-243.96875-25.601562-254.207031 1.78125.113281 3.535156.488281 5.207031 1.109374 17.570312 6.535157 36.210938 9.71875 54.953125 9.386719 18.746094.332031 37.386719-2.851562 54.957031-9.386719 1.671875-.621093 3.421875-.996093 5.203125-1.109374 4.695313 10.238281 46.507813 109.3125-25.597656 254.207031zm0 0" fill="#a4c2f7"/><path d="m221.855469 265.105469v1.792969l-69.035157 1.109374-.085937-2.902343c-72.105469-144.894531-30.292969-243.96875-25.601563-254.207031 1.78125.113281 3.535157.488281 5.207032 1.109374 17.570312 6.535157 36.210937 9.71875 54.953125 9.386719 18.746093.332031 37.386719-2.851562 54.957031-9.386719 1.671875-.621093 3.421875-.996093 5.203125-1.109374 4.695313 10.238281 46.507813 109.3125-25.597656 254.207031zm0 0" fill="#a4c2f7"/><path d="m178.761719 268.007812-108.800781 1.789063c-.085938-.167969-.171876-.253906-.257813-.425781-37.035156-57.34375-78.589844-227.753906-53.757813-256.171875 3.414063-4.03125 9.085938-5.320313 13.910157-3.15625 13.71875 4.316406 27.953125 6.785156 42.324219 7.339843 18.046874.734376 36.125-.152343 54.015624-2.644531 9.898438-1.28125 17.835938-2.730469 22.527344-3.671875 1.433594-.269531 2.902344-.324218 4.351563-.167968-4.691407 10.238281-46.507813 109.3125 25.601562 254.207031zm0 0" fill="#a4c2f7"/><path d="m153.5 268.007812-83.796875 1.363282c-37.035156-57.34375-78.589844-227.753906-53.757813-256.171875 18.476563 3.878906 37.386719 5.285156 56.234376 4.183593 17.222656-.894531 34.359374-3.003906 51.285156-6.316406 1.433594-.269531 2.898437-.324218 4.351562-.167968-.339844.765624-.9375 2.046874-1.621094 3.839843-8.703124 21.589844-39.425781 116.394531 27.222657 250.367188zm0 0" fill="#a4c2f7"/><path d="m354.546875 265.105469-106.75 1.792969v-1.792969c66.558594-133.804688 36.007813-228.523438 27.304687-250.28125-.769531-1.792969-1.363281-3.160157-1.707031-3.925781 1.453125-.15625 2.917969-.101563 4.351563.167968 16.867187 3.316406 33.949218 5.425782 51.117187 6.316406 18.902344 1.101563 37.871094-.304687 56.402344-4.183593 3.835937-.859375 7.625-1.914063 11.351563-3.15625 50.941406-16.980469.511718 194.046875-42.070313 255.0625zm0 0" fill="#a4c2f7"/><path d="m328.945312 265.105469-81.148437 1.363281v-1.363281c66.558594-133.804688 36.007813-228.523438 27.304687-250.28125 17.8125 2.417969 35.800782 3.273437 53.761719 2.558593 14.316407-.546874 28.492188-3.015624 42.152344-7.339843 4.925781-2.210938 10.71875-.925781 14.25 3.15625 24.578125 28.675781-18.855469 198.230469-56.320313 251.90625zm0 0" fill="#a4c2f7"/><path d="m503.199219 284.5625-10.582031 80.636719v.085937l-25.773438 4.011719-8.53125 1.367187c-.625-1.519531-1.335938-3.003906-2.132812-4.4375-.449219-.917968-.960938-1.804687-1.535157-2.648437-.277343-.601563-.621093-1.175781-1.027343-1.703125-.714844-1.269531-1.542969-2.46875-2.472657-3.585938-.78125-1.109374-1.636719-2.164062-2.558593-3.15625-.644532-.855468-1.355469-1.65625-2.136719-2.390624-.496094-.582032-1.039063-1.125-1.621094-1.621094-.851563-.851563-1.789063-1.707032-2.730469-2.476563-.320312-.308593-.660156-.59375-1.023437-.851562-1.121094-.976563-2.320313-1.859375-3.582031-2.644531-1.152344-.90625-2.378907-1.703126-3.671876-2.390626-.859374-.59375-1.773437-1.109374-2.730468-1.535156-1.570313-.871094-3.195313-1.640625-4.863282-2.304687-1.335937-.585938-2.703124-1.097657-4.09375-1.535157-.132812-.070312-.28125-.097656-.429687-.085937-.066406-.066406-.160156-.097656-.253906-.085937-1.109375-.339844-2.304688-.597657-3.414063-.851563-1.109375-.257813-2.390625-.597656-3.585937-.941406-4.945313-.945313-9.992188-1.261719-15.015625-.9375-1.289063.058593-2.570313.199219-3.839844.425781-1.269531.070312-2.527344.269531-3.757812.597656-1.109376.171875-2.132813.429688-3.15625.683594-.171876.085938-.339844.085938-.425782.171875h-.339844c-1.253906.308594-2.480468.707031-3.671874 1.195313-1.929688.597656-3.8125 1.339843-5.632813 2.21875h-.082031c-.765625.316406-1.507813.6875-2.21875 1.109374-.386719.164063-.757813.363282-1.109375.59375-.460938.160157-.894531.390626-1.28125.683594-.375.132813-.722657.335938-1.023438.597656-.085937 0-.171875 0-.257812.171876-.992188.472656-1.933594 1.042968-2.816407 1.707031-7.273437 4.917969-13.363281 11.386719-17.832031 18.941406-1.4375 2.4375-2.695312 4.976563-3.757812 7.597656-1.109375 2.648438-1.996094 5.390625-2.644531 8.191407-.820313 3.046874-1.394532 6.160156-1.707032 9.300781l-34.386718 5.375h-51.117188l-34.472656-5.460938c-3.007813-32.257812-31.164063-56.246093-63.488282-54.101562h-.425781c-2.410156.175781-4.808593.515625-7.167969 1.023437-1.269531.203125-2.523437.488282-3.757812.855469-1.875.511719-3.753906 1.109375-5.628906 1.792969l-1.28125.511718c-1.632813.652344-3.226563 1.390626-4.777344 2.21875-2.410156 1.179688-4.722656 2.546876-6.914062 4.09375-1.519532 1.011719-2.976563 2.125-4.351563 3.328126-1.449219 1.195312-2.816406 2.476562-4.09375 3.753906-.855469.855468-1.707031 1.792968-2.476563 2.730468-2.664062 2.941407-4.984374 6.175782-6.910156 9.644532-.535156.910156-1.019531 1.851562-1.453125 2.816406-.597656 1.007812-1.109375 2.0625-1.535156 3.15625l-28.246094-4.523438-6.144531-.9375-10.582031-80.382812c-.660157-4.890625.8125-9.828125 4.046875-13.550781 3.234375-3.726563 7.917968-5.878907 12.851562-5.90625h404.734375c4.933594.027343 9.617188 2.179687 12.851563 5.90625 3.234375 3.722656 4.707031 8.660156 4.046875 13.550781zm0 0" fill="#7fabfa"/><path d="m472.734375 284.5625-5.375 40.875-5.035156 38.140625-.171875 1.621094v.085937l-5.972656.941406-12.460938 1.960938 10.925781-4.609375c-.277343-.601563-.621093-1.175781-1.027343-1.703125-.714844-1.269531-1.542969-2.46875-2.472657-3.585938-.78125-1.109374-1.636719-2.164062-2.558593-3.15625-.644532-.855468-1.355469-1.65625-2.136719-2.390624-.496094-.582032-1.039063-1.125-1.621094-1.621094-.851563-.851563-1.789063-1.707032-2.730469-2.476563-.320312-.308593-.660156-.59375-1.023437-.851562-1.121094-.976563-2.320313-1.859375-3.582031-2.644531-1.152344-.90625-2.378907-1.703126-3.671876-2.390626l-9.042968 21.847657c-3.132813-5.726563-7.265625-10.839844-12.203125-15.105469l5.460937-13.140625c-1.195312-.34375-2.390625-.597656-3.585937-.941406-4.945313-.945313-9.992188-1.261719-15.015625-.9375-1.289063.058593-2.570313.199219-3.839844.425781-1.269531.070312-2.527344.269531-3.757812.597656-1.109376.171875-2.132813.429688-3.15625.683594l.171874.425781c-.257812-.085937-.34375-.167969-.597656-.253906h-.339844c-4.757812-1.285156-9.664062-1.945313-14.59375-1.964844-24.292968-.242187-46.289062 14.320313-55.550781 36.78125-2.308593 5.582031-3.773437 11.476563-4.351562 17.492188l-3.839844.597656-30.550781 4.777344h-51.113282l-3.757812-.597657c0-1.625-.085938-3.246093-.253906-4.863281-3.007813-32.257812-31.164063-56.246093-63.488282-54.101562h-.425781c-2.410156.175781-4.808593.515625-7.167969 1.023437-1.269531.203125-2.523437.488282-3.757812.855469-26.675781-7.0625-54.703125 5.164063-67.667969 29.523437l-6.144531-.9375-10.582031-80.382812c-.660157-4.890625.8125-9.828125 4.046875-13.550781 3.234375-3.726563 7.917968-5.878907 12.851562-5.90625h374.269532c4.933593.027343 9.617187 2.179687 12.851562 5.90625 3.234375 3.722656 4.707031 8.660156 4.046875 13.550781zm0 0" fill="#e3e7f2"/><path d="m238.835938 336.820312v-71.714843h-34.132813v43.851562zm0 0" fill="#a4c2f7"/><path d="m332.703125 332.3125v-67.207031h34.132813v42.128906zm0 0" fill="#a4c2f7"/><path d="m503.367188 213.828125c0 9.425781-7.640626 17.066406-17.066407 17.066406h-25.597656v34.210938h-34.136719v-85.410157c0-9.425781 7.644532-17.066406 17.070313-17.066406s17.066406 7.640625 17.066406 17.066406v17.066407h25.597656c9.425781 0 17.066407 7.640625 17.066407 17.066406zm0 0" fill="#a4c2f7"/><path d="m492.617188 365.285156v-.085937c-4.894532-15.191407-13.589844-28.878907-25.257813-39.761719-27.363281-25.664062-67.429687-32.453125-101.71875-17.238281-.085937 0-.171875.085937-.257813.085937-12.578124 5.433594-23.753906 13.664063-32.679687 24.0625-6.726563 7.652344-12.144531 16.359375-16.042969 25.769532-4.070312 9.921874-6.460937 20.445312-7.082031 31.148437-.085937 1.621094-.085937 3.15625-.085937 4.777344.023437 44.761719 31.648437 83.277343 75.546874 92.011719 43.902344 8.734374 87.863282-14.742188 105.015626-56.085938 8.566406-20.558594 9.472656-43.507812 2.5625-64.683594zm-58.796876 80.128906c-4.867187 2.933594-10.164062 5.09375-15.699218 6.398438-9.640625 2.589844-19.785156 2.621094-29.441406.085938-2.800782-.648438-5.539063-1.53125-8.191407-2.644532-2.605469-1.097656-5.140625-2.351562-7.59375-3.753906-8.566406-5.136719-15.722656-12.320312-20.820312-20.90625-2.984375-4.886719-5.175781-10.214844-6.488281-15.789062-1.765626-6.554688-2.339844-13.375-1.707032-20.136719.3125-3.140625.886719-6.253907 1.707032-9.300781.648437-2.800782 1.535156-5.542969 2.644531-8.191407 1.0625-2.621093 2.320312-5.160156 3.757812-7.597656 4.46875-7.554687 10.558594-14.023437 17.832031-18.941406.882813-.664063 1.824219-1.234375 2.816407-1.707031.085937-.171876.171875-.171876.257812-.171876.300781-.261718.648438-.464843 1.023438-.597656.386719-.292968.820312-.523437 1.28125-.683594.351562-.230468.722656-.429687 1.109375-.59375.710937-.421874 1.453125-.792968 2.21875-1.109374h.082031c1.820313-.878907 3.703125-1.621094 5.632813-2.21875 1.191406-.488282 2.417968-.886719 3.671874-1.195313h.339844c.085938-.085937.253906-.085937.425782-.171875 1.023437-.253906 2.046874-.511719 3.15625-.683594 1.230468-.328125 2.488281-.527344 3.757812-.597656 1.269531-.226562 2.550781-.367188 3.839844-.425781 5.023437-.324219 10.070312-.007813 15.015625.9375 1.195312.257812 2.390625.515625 3.671875.855469 1.128906.234374 2.242187.546874 3.328125.9375.09375-.011719.1875.019531.253906.085937.148437-.011719.296875.015625.429687.085937 1.390626.4375 2.757813.949219 4.09375 1.535157 1.667969.664062 3.292969 1.433593 4.863282 2.304687.957031.425782 1.871094.941406 2.730468 1.535156 1.292969.6875 2.519532 1.484376 3.671876 2.390626 1.261718.785156 2.460937 1.667968 3.582031 2.644531.363281.257812.703125.542969 1.023437.851562.941406.769531 1.878906 1.625 2.730469 2.476563.582031.496094 1.125 1.039062 1.621094 1.621094.78125.734374 1.492187 1.535156 2.136719 2.390624.921874.992188 1.777343 2.046876 2.558593 3.15625.929688 1.117188 1.757813 2.316407 2.472657 3.585938.40625.527344.75 1.101562 1.027343 1.703125.574219.84375 1.085938 1.730469 1.535157 2.648437.796874 1.433594 1.507812 2.917969 2.132812 4.4375 1.222656 2.808594 2.191406 5.722657 2.902344 8.703126 2.53125 9.652343 2.5 19.800781-.085938 29.4375-.605468 2.777343-1.464844 5.488281-2.5625 8.109374-1.066406 2.675782-2.378906 5.246094-3.921875 7.679688-5.035156 8.617188-12.207031 15.789062-20.824219 20.820312zm0 0" fill="#7fabfa"/><path d="m81.394531 365.882812 28.246094 4.523438c.425781-1.09375.9375-2.148438 1.535156-3.15625.433594-.964844.917969-1.90625 1.453125-2.816406 1.925782-3.46875 4.246094-6.703125 6.910156-9.644532.769532-.9375 1.621094-1.875 2.476563-2.730468 1.277344-1.277344 2.644531-2.558594 4.09375-3.753906 1.375-1.203126 2.832031-2.316407 4.351563-3.328126 2.191406-1.546874 4.503906-2.914062 6.914062-4.09375 1.550781-.828124 3.144531-1.566406 4.777344-2.21875l1.28125-.511718c1.875-.683594 3.753906-1.28125 5.628906-1.792969-26.675781-7.0625-54.703125 5.164063-67.667969 29.523437zm157.441407-29.097656-.171876-.171875c-8.800781-11.425781-20.136718-20.65625-33.109374-26.964843-1.621094-.765626-3.328126-1.621094-5.121094-2.304688-23.003906-9.546875-48.859375-9.5625-71.875-.039062-23.015625 9.523437-41.300782 27.800781-50.832032 50.8125-.953124 2.230468-1.777343 4.507812-2.476562 6.828124-13.863281 42.460938 4.117188 88.8125 42.988281 110.816407 38.871094 22.007812 87.863281 13.574219 117.140625-20.164063 29.273438-33.738281 30.71875-83.429687 3.457032-118.8125zm-19.199219 80.128906c-7.867188 20.15625-26.019531 34.484376-47.453125 37.449219-21.433594 2.96875-42.796875-5.886719-55.847656-23.148437-13.046876-17.261719-15.738282-40.230469-7.035157-60.039063.082031-.257812.253907-.511719.339844-.769531.425781-1.09375.9375-2.148438 1.535156-3.15625.433594-.964844.917969-1.90625 1.453125-2.816406 1.925782-3.46875 4.246094-6.703125 6.910156-9.644532.769532-.9375 1.621094-1.875 2.476563-2.730468 1.277344-1.277344 2.644531-2.558594 4.09375-3.753906 1.375-1.203126 2.832031-2.316407 4.351563-3.328126 2.191406-1.546874 4.503906-2.914062 6.914062-4.09375 1.550781-.828124 3.144531-1.566406 4.777344-2.21875l1.28125-.511718c1.875-.683594 3.753906-1.28125 5.628906-1.792969 1.234375-.367187 2.488281-.652344 3.757812-.855469 2.359376-.507812 4.757813-.847656 7.167969-1.023437h.425781c32.324219-2.144531 60.480469 21.84375 63.488282 54.101562.167968 1.617188.253906 3.238281.253906 4.863281.128906 8.050782-1.410156 16.042969-4.519531 23.46875zm-138.242188-51.03125 28.246094 4.523438c.425781-1.09375.9375-2.148438 1.535156-3.15625.433594-.964844.917969-1.90625 1.453125-2.816406 1.925782-3.46875 4.246094-6.703125 6.910156-9.644532.769532-.9375 1.621094-1.875 2.476563-2.730468 1.277344-1.277344 2.644531-2.558594 4.09375-3.753906 1.375-1.203126 2.832031-2.316407 4.351563-3.328126 2.191406-1.546874 4.503906-2.914062 6.914062-4.09375 1.550781-.828124 3.144531-1.566406 4.777344-2.21875l1.28125-.511718c1.875-.683594 3.753906-1.28125 5.628906-1.792969-26.675781-7.0625-54.703125 5.164063-67.667969 29.523437zm0 0" fill="#7fabfa"/><path d="m149.0625 11.066406c1.210938-.191406 2.441406-.242187 3.664062-.144531-1.339843-.128906-2.6875-.074219-4.011718.15625-2.9375.585937-7.261719 1.378906-12.433594 2.199219-1.3125-.453125-2.636719-.757813-3.949219-1.261719-1.476562-.53125-3.007812-.875-4.566406-1.023437l.042969-.085938c-.179688 0-.351563 0-.53125 0h-.152344c-1.222656-.097656-2.449219-.046875-3.660156.144531-12.417969 2.410157-24.949219 4.191407-37.546875 5.332031 3.941406.4375 7.886719.765626 11.835937.984376 17.230469-.886719 34.375-2.992188 51.308594-6.300782zm0 0" fill="#fff"/><path d="m153.152344 10.90625h-.078125c-.085938 0-.179688 0-.265625 0h.078125c.085937.015625.179687-.007812.265625 0zm0 0" fill="#fff"/><path d="m154.183594 480.828125c-45.304688-18.78125-68.535156-69.253906-53.332032-115.882813l-10.582031-80.382812c-.714843-5.496094 1.269531-10.996094 5.332031-14.765625-.082031-.167969-.167968-.253906-.253906-.425781-37.019531-57.308594-78.507812-227.558594-53.761718-256.117188-3.976563-.914062-7.882813-1.945312-11.65625-3.210937-4.820313-2.164063-10.492188-.875-13.910157 3.15625-24.832031 28.417969 16.726563 198.828125 53.761719 256.171875.085938.171875.171875.257812.257812.425781-4.0625 3.769531-6.050781 9.269531-5.335937 14.765625l10.546875 80.382812c-9.3125 28.582032-4.386719 59.894532 13.253906 84.234376 17.636719 24.339843 45.859375 38.769531 75.921875 38.816406 4.410157-.007813 8.816407-.324219 13.183594-.949219-8.042969-1.070313-15.914063-3.160156-23.425781-6.21875zm0 0" fill="#fff"/><path d="m157.9375 12.007812c1.316406.503907 2.636719.851563 3.953125 1.261719h.222656c-1.28125-.445312-2.5625-.742187-3.832031-1.230469-1.574219-.570312-3.214844-.929687-4.882812-1.066406v.042969c1.550781.140625 3.074218.472656 4.539062.992187zm0 0" fill="#fff"/><path d="m62.808594 274.492188c-9.894532-16.359376-18.160156-33.652344-24.675782-51.628907-6.65625-17.59375-12.390624-35.410156-17.476562-53.433593-8.003906-28.074219-14.042969-56.667969-18.066406-85.582032-2.136719-14.765625-2.957032-29.691406-2.441406-44.601562.171874-8.226563 1.773437-16.355469 4.738281-24.03125.996093-2.28125 2.230469-4.449219 3.675781-6.476563.945312-1.113281 1.964844-2.160156 3.054688-3.132812 1.0625-1.117188 2.34375-2.011719 3.765624-2.617188 1.417969-.761719 2.914063-1.367187 4.460938-1.8125 1.519531-.238281 3.082031-.398437 4.625-.492187 2.738281.0625 5.453125.488281 8.082031 1.261718l-5.394531 16.214844c-2.023438-.300781-3.371094-.71875-3.738281-.105468-.1875-.066407-.398438.113281-.585938.4375-.1875.324218-.480469.359374-.753906.683593-.417969 1.058594-1.160156 1.515625-1.558594 2.910157-2.109375 5.816406-3.234375 11.945312-3.328125 18.132812-.445312 13.847656.335938 27.707031 2.335938 41.417969 3.925781 28.09375 9.796875 55.882812 17.578125 83.160156 4.96875 17.578125 10.574219 34.984375 16.992187 51.976563 6.09375 16.816406 13.800782 33 23.011719 48.332031zm0 0" fill="#fff"/><g fill="#428dff"><path d="m227.546875 367.949219c0-.070313-.09375-.113281-.128906-.1875-14.304688-35.074219-54.3125-51.933594-89.40625-37.675781-35.089844 14.253906-52.007813 54.238281-37.800781 89.351562 14.207031 35.113281 54.167968 52.082031 89.300781 37.921875.652343.019531 1.28125-.21875 1.757812-.664063 34.367188-14.527343 50.582031-54.054687 36.320313-88.53125-.035156-.078124-.019532-.148437-.042969-.214843zm-37.609375 27.433593c0-.851562.0625-1.75 0-2.628906l24.363281-10.09375c1.738281 7.511719 1.738281 15.316406 0 22.828125zm-75.320312-12.722656 24.378906 10.105469c0 .851563-.0625 1.703125 0 2.625l-24.371094 10.097656c-1.730469-7.511719-1.734375-15.316406-.007812-22.828125zm41.972656 8.148438c1.167968-2.816406 3.746094-4.796875 6.769531-5.195313 3.023437-.398437 6.027344.84375 7.886719 3.265625 1.855468 2.417969 2.28125 5.640625 1.113281 8.457032-1.167969 2.820312-3.75 4.796874-6.773437 5.195312-3.023438.398438-6.027344-.847656-7.882813-3.269531-1.855469-2.417969-2.28125-5.644531-1.113281-8.460938zm51.199218-23.890625-24.371093 10.101562c-.585938-.652343-1.210938-1.269531-1.867188-1.851562l10.101563-24.398438c6.53125 4.085938 12.050781 9.597657 16.136718 16.121094zm-31.894531-22.707031-10.113281 24.402343c-.851562-.042969-1.707031-.058593-2.621094 0l-10.101562-24.402343c3.742187-.894532 7.570312-1.351563 11.417968-1.367188 3.84375.019531 7.675782.480469 11.417969 1.367188zm-38.582031 6.59375 10.078125 24.320312c-.648437.589844-1.253906 1.21875-1.851563 1.871094l-24.328124-10.078125c4.0625-6.527344 9.558593-12.039063 16.078124-16.113281zm-16.152344 70.460937 24.371094-10.09375c.589844.648437 1.210938 1.261719 1.867188 1.839844l-10.109376 24.390625c-6.527343-4.089844-12.042968-9.609375-16.128906-16.136719zm31.898438 22.671875 10.101562-24.378906c.429688 0 .855469.121094 1.28125.121094.425782 0 .90625-.078126 1.355469-.09375l10.097656 24.351562c-7.515625 1.730469-15.324219 1.726562-22.835937-.007812zm38.59375-6.535156-10.058594-24.296875c.652344-.609375 1.273438-1.253907 1.859375-1.925781l24.347656 10.085937c-4.09375 6.527344-9.613281 12.042969-16.148437 16.128906zm0 0"/><path d="m466.445312 367.949219c-14.484374-34.742188-54.359374-51.207031-89.136718-36.800781-34.773438 14.40625-51.328125 54.242187-37.003906 89.050781 14.082031 34.585937 53.527343 51.21875 88.125 37.160156.359374-.050781.71875-.125 1.074218-.21875.226563-.136719.445313-.285156.65625-.445313 34.441406-14.570312 50.65625-54.21875 36.292969-88.746093zm-37.589843 27.441406c.050781-.875.050781-1.757813 0-2.636719l24.386719-10.101562c1.75 7.511718 1.75 15.328125 0 22.84375zm-75.332031-12.730469 24.40625 10.105469c-.042969.851563-.0625 1.703125 0 2.625l-24.363282 10.097656c-1.75-7.507812-1.765625-15.316406-.042968-22.828125zm53.121093 19.300782c-3.191406 1.320312-6.859375.589843-9.300781-1.851563-2.4375-2.441406-3.167969-6.113281-1.84375-9.300781.867188-2.085938 2.527344-3.742188 4.613281-4.605469 2.089844-.871094 4.441407-.871094 6.53125 0 2.089844.863281 3.75 2.527344 4.617188 4.617187.867187 2.09375.863281 4.441407-.003907 6.535157-.859374 2.089843-2.515624 3.746093-4.605468 4.605469zm40.003907-35.042969-24.320313 10.066406c-.589844-.652344-1.214844-1.269531-1.871094-1.859375l10.078125-24.320312c6.527344 4.074218 12.039063 9.585937 16.113282 16.113281zm-31.855469-22.707031-10.09375 24.378906c-.855469-.042969-1.757813-.042969-2.636719 0l-10.105469-24.390625c7.503907-1.8125 15.332031-1.8125 22.835938 0zm-38.570313 6.59375 10.070313 24.320312c-.652344.589844-1.273438 1.207031-1.863281 1.859375l-24.320313-10.066406c4.070313-6.53125 9.582031-12.042969 16.113281-16.113281zm-16.164062 70.460937 24.371094-10.09375c.59375.644531 1.214843 1.257813 1.871093 1.839844l-10.078125 24.382812c-6.542968-4.082031-12.066406-9.597656-16.164062-16.128906zm31.898437 22.671875 10.105469-24.378906c.425781 0 .851562.128906 1.277344.128906.425781 0 .90625-.078125 1.359375-.101562l10.09375 24.351562c-7.515625 1.730469-15.324219 1.726562-22.835938-.007812zm38.597657-6.535156-10.0625-24.296875c.65625-.59375 1.261718-1.261719 1.871093-1.925781l24.335938 10.085937c-4.089844 6.53125-9.609375 12.046875-16.144531 16.128906zm0 0"/><path d="m49.453125 211.421875c1.84375-4.230469.097656-9.164063-3.992187-11.296875-1.027344-.460938-2.128907-.722656-3.25-.777344-1.113282-.082031-2.234376.054688-3.292969.402344-2.128907.738281-3.890625 2.265625-4.925781 4.265625-.933594 2.082031-1.046876 4.441406-.324219 6.605469.773437 2.15625 2.355469 3.925781 4.410156 4.941406l1.554687.527344c.558594.140625 1.132813.207031 1.707032.195312.539062.0625 1.085937.042969 1.621094-.050781.5625-.105469 1.113281-.253906 1.65625-.433594 2.097656-.8125 3.820312-2.371093 4.835937-4.378906zm0 0"/><path d="m112.542969 56.269531c4.621093-.941406 7.601562-5.453125 6.660156-10.074219-.945313-4.621093-5.453125-7.601562-10.074219-6.660156-21.003906 5.046875-42.890625 5.132813-63.933594.253906-4.476562-1.476562-9.304687.953126-10.785156 5.429688-1.480468 4.476562.949219 9.304688 5.425782 10.785156 11.164062 3.109375 22.722656 4.550782 34.304687 4.265625 12.902344-.0625 25.765625-1.402343 38.402344-4zm0 0"/><path d="m312.9375 56.039062c11.160156 3.109376 22.722656 4.546876 34.304688 4.265626 12.890624-.078126 25.742187-1.429688 38.367187-4.035157 4.621094-.941406 7.601563-5.453125 6.660156-10.074219-.945312-4.621093-5.453125-7.601562-10.074219-6.660156-21.003906 5.046875-42.890624 5.132813-63.933593.253906-2.894531-.957031-6.082031-.292968-8.359375 1.734376-2.277344 2.03125-3.296875 5.121093-2.679688 8.105468.621094 2.988282 2.785156 5.417969 5.683594 6.375zm0 0"/><path d="m261.933594 57.746094c3.386718-3.347656 3.46875-8.789063.1875-12.238282-1.539063-1.621093-3.671875-2.554687-5.910156-2.585937-2.238282-.035156-4.394532.835937-5.984376 2.414063-.078124.0625-8.363281 6.375-36.992187 6.375-27.570313 0-36.273437-5.851563-36.957031-6.339844-3.441406-3.0625-8.691406-2.839844-11.863282.503906-3.167968 3.339844-3.117187 8.59375.121094 11.871094 1.84375 1.824218 12.859375 11.015625 48.699219 11.015625s46.855469-9.191407 48.699219-11.015625zm0 0"/><path d="m486.300781 239.429688c14.140625 0 25.601563-11.464844 25.601563-25.601563s-11.460938-25.601563-25.601563-25.601563h-17.066406v-8.53125c0-14.140624-11.460937-25.601562-25.597656-25.601562-14.140625 0-25.601563 11.460938-25.601563 25.601562v76.875h-48.28125c35.371094-64.066406 73.777344-213.914062 48.640625-247.628906-5.585937-7.652344-15.65625-10.53125-24.441406-6.988281-41.292969 13.800781-98.0625 4.0625-114.6875.710937-2.003906-.382812-4.050781-.484374-6.082031-.300781h-.214844c-2.679688.164063-5.320312.722657-7.835938 1.664063-16.046874 5.988281-33.058593 8.988281-50.191406 8.839844-.5625 0-1.09375 0-1.707031 0h-.085937c-17.753907.332031-35.414063-2.691407-52.050782-8.90625-2.253906-.847657-4.617187-1.359376-7.015625-1.527344-.195312 0-.394531 0-.589843 0h-.296876c-2.058593-.164063-4.125-.058594-6.152343.3125-16.417969 3.3125-73.199219 13.058594-114.476563-.75-2.625-.773438-5.34375-1.199219-8.082031-1.261719-1.546875.085937-3.089844.253906-4.625.496094-1.546875.441406-3.042969 1.046875-4.460937 1.808593-1.417969.605469-2.699219 1.5-3.761719 2.617188-1.089844.972656-2.109375 2.019531-3.054688 3.132812-1.449219 2.027344-2.679687 4.195313-3.679687 6.476563-2.960938 7.65625-4.570313 15.769531-4.753906 23.980469-.515626 14.910156.304687 29.835937 2.441406 44.601562 4.023437 28.914063 10.0625 57.507813 18.066406 85.582032l2.394531 8.300781c1.414063 4.40625 6.082031 6.882812 10.523438 5.585937 4.4375-1.296875 7.035156-5.898437 5.855469-10.371094l-2.339844-8.105468c-7.777344-27.292969-13.644532-55.09375-17.5625-83.203125-1.996094-13.722657-2.773438-27.59375-2.320313-41.453125.089844-6.1875 1.214844-12.316406 3.328125-18.132813.410156-1.390625 1.144532-1.851562 1.5625-2.917969.273438-.316406.546875-.402343.75-.675781.203125-.273437.402344-.503906.589844-.433593.367188-.617188 1.707031-.199219 3.738281.101562 38.679688 12.9375 88.402344 7.289062 112.84375 3.191406-10.855469 33.203125-28.519531 119.261719 25.121094 235.253906h-83.574219c-2.886718.042969-5.738281.582032-8.441406 1.597657-4.085938-7.152344-7.808594-14.503907-11.152344-22.035157-1.953125-4.214843-6.925781-6.09375-11.179687-4.21875-4.257813 1.875-6.226563 6.808594-4.4375 11.097657 3.914062 8.984375 8.347656 17.730469 13.28125 26.199219-2.957031 4.957031-4.160157 10.761718-3.414063 16.484374l10.332032 78.507813c-11.523438 37.507813-.601563 78.304687 28.125 105.039063 28.726562 26.730468 70.203124 34.699218 106.785156 20.507812 36.585937-14.1875 61.847656-48.035156 65.035156-87.148438h34.875c.898438 10.523438 3.40625 20.847657 7.433594 30.609376 21.136718 50.039062 77.671875 74.863281 128.820312 56.570312 51.144532-18.296875 79.105469-73.347656 63.707032-125.441406l10.316406-78.660156c.984375-7.375-1.261719-14.8125-6.160156-20.414063-4.847657-5.523437-11.839844-8.691406-19.191407-8.695313h-17.066406v-17.140624zm-128 62.667968c-6.019531 2.945313-11.738281 6.476563-17.066406 10.546875v-39.007812h17.066406zm-49.492187 52.785156c-4.046875 9.773438-6.546875 20.113282-7.414063 30.652344h-34.910156c-1.527344-18.5625-8.144531-36.34375-19.117187-51.394531v-60.503906h76.800781v55.46875c-6.355469 7.792969-11.53125 16.480469-15.359375 25.777343zm-95.574219-81.246093h17.066406v42.011719c-5.28125-4.4375-11-8.324219-17.066406-11.605469zm186.085937-255.496094c3.695313-1.246094 4.488282-.136719 5.359376 1.015625 18.390624 24.621094-18.039063 180.4375-54.730469 237.414062h-88.621094c53.640625-115.992187 35.976563-202.050781 25.140625-235.238281 24.617188 4.132813 74.230469 9.738281 112.851562-3.191406zm-241.140624 2.800781c17.132812 6.046875 35.179687 9.089844 53.347656 8.992188h1.835937c18.695313.214844 37.28125-2.824219 54.9375-8.976563 9.421875 25.097657 33.621094 112.589844-25.882812 235.613281h-58.367188c-59.503906-123.023437-35.300781-210.515624-25.871093-235.628906zm37.988281 252.695313v23.144531c-43.148438-14.234375-90.507813 1.820312-116.105469 39.363281l-6.9375-52.691406c-.328125-2.5.4375-5.019531 2.101562-6.914063 1.585938-1.847656 3.902344-2.90625 6.339844-2.902343zm47.136719 153.089843c-15.574219 37.671876-55.597657 59.085938-95.582032 51.144532-39.984375-7.9375-68.789062-43.023438-68.789062-83.789063s28.804687-75.851562 68.789062-83.789062c39.984375-7.941407 80.007813 13.472656 95.582032 51.144531 8.683593 20.898438 8.683593 44.390625 0 65.289062zm238.933593 0c-15.640625 37.53125-55.578125 58.828126-95.460937 50.898438-39.878906-7.925781-68.636719-42.878906-68.734375-83.539062v-.042969c.03125-40.695313 28.792969-75.703125 68.707031-83.632813 39.914062-7.925781 79.875 13.433594 95.457031 51.027344.980469 2.363281 1.808594 4.769531 2.558594 7.183594 6.046875 19.0625 5.140625 39.648437-2.550781 58.105468zm10.4375-150.1875c1.660157 1.902344 2.417969 4.429688 2.082031 6.929688l-6.921874 52.753906c-19.058594-27.875-50.640626-44.550781-84.410157-44.570312-9.488281.011718-18.929687 1.335937-28.058593 3.933594v-21.949219h110.933593c2.4375-.003907 4.757813 1.054687 6.351563 2.902343zm-57.574219-19.96875v-76.875c0-4.714843 3.820313-8.535156 8.535157-8.535156 4.710937 0 8.53125 3.820313 8.53125 8.535156v17.066407c0 4.710937 3.820312 8.535156 8.535156 8.535156h25.597656c4.714844 0 8.535157 3.820313 8.535157 8.53125 0 4.714844-3.820313 8.535156-8.535157 8.535156h-25.597656c-4.714844 0-8.535156 3.820313-8.535156 8.53125v25.675781zm0 0"/></g></svg>