<svg height="511pt" viewBox="0 -7 511.9414 511" width="511pt" xmlns="http://www.w3.org/2000/svg"><path d="m247.835938 265.125v1.792969l-69.035157 1.109375-.085937-2.902344c-72.105469-144.894531-30.292969-243.96875-25.601563-254.207031 1.78125.113281 3.535157.488281 5.207031 1.109375 17.570313 6.535156 36.210938 9.71875 54.953126 9.386718 18.746093.332032 37.386718-2.851562 54.957031-9.386718 1.671875-.621094 3.425781-.996094 5.203125-1.109375 4.695312 10.238281 46.507812 109.3125-25.597656 254.207031zm0 0" fill="#ffb301"/><path d="m221.894531 265.125v1.792969l-69.035156 1.109375-.085937-2.902344c-72.105469-144.894531-30.292969-243.96875-25.601563-254.207031 1.78125.113281 3.535156.488281 5.207031 1.109375 17.570313 6.535156 36.210938 9.71875 54.953125 9.386718 18.746094.332032 37.386719-2.851562 54.957031-9.386718 1.671876-.621094 3.425782-.996094 5.203126-1.109375 4.695312 10.238281 46.507812 109.3125-25.597657 254.207031zm0 0" fill="#fdd834"/><path d="m178.800781 268.027344-108.800781 1.789062c-.085938-.167968-.171875-.253906-.257812-.425781-37.03125-57.34375-78.589844-227.753906-53.757813-256.167969 3.414063-4.035156 9.085937-5.324218 13.910156-3.160156 13.71875 4.316406 27.953125 6.785156 42.324219 7.339844 18.046875.734375 36.125-.152344 54.015625-2.644532 9.898437-1.28125 17.835937-2.730468 22.527344-3.671874 1.433593-.269532 2.902343-.324219 4.351562-.167969-4.691406 10.238281-46.503906 109.3125 25.601563 254.207031zm0 0" fill="#ffb301"/><path d="m153.542969 268.027344-83.800781 1.363281c-37.03125-57.34375-78.589844-227.753906-53.757813-256.167969 18.476563 3.878906 37.386719 5.28125 56.234375 4.179688 17.222656-.894532 34.359375-3.003906 51.285156-6.316406 1.433594-.269532 2.902344-.324219 4.351563-.167969-.339844.765625-.9375 2.046875-1.621094 3.839843-8.703125 21.589844-39.421875 116.394532 27.222656 250.367188zm0 0" fill="#fdd834"/><path d="m354.585938 265.125-106.75 1.792969v-1.792969c66.558593-133.800781 36.007812-228.523438 27.304687-250.28125-.765625-1.792969-1.363281-3.160156-1.707031-3.925781 1.453125-.15625 2.917968-.101563 4.351562.167969 16.867188 3.316406 33.949219 5.425781 51.117188 6.316406 18.902344 1.101562 37.871094-.300782 56.40625-4.179688 3.832031-.863281 7.621094-1.914062 11.347656-3.160156 50.945312-16.980469.511719 194.050781-42.070312 255.0625zm0 0" fill="#ffb301"/><path d="m328.988281 265.125-81.152343 1.367188v-1.367188c66.558593-133.800781 36.007812-228.523438 27.304687-250.28125 17.8125 2.417969 35.800781 3.273438 53.761719 2.558594 14.316406-.546875 28.496094-3.015625 42.152344-7.339844 4.925781-2.210938 10.722656-.925781 14.253906 3.160156 24.574218 28.671875-18.859375 198.226563-56.320313 251.902344zm0 0" fill="#fdd834"/><path d="m503.238281 284.582031-10.582031 80.640625v.082032l-25.769531 4.011718-8.535157 1.367188c-.625-1.519532-1.335937-3.003906-2.132812-4.4375-.449219-.917969-.960938-1.804688-1.535156-2.648438-.277344-.601562-.621094-1.175781-1.023438-1.703125-.71875-1.265625-1.546875-2.46875-2.476562-3.585937-.78125-1.109375-1.636719-2.164063-2.558594-3.15625-.640625-.855469-1.355469-1.65625-2.132812-2.390625-.5-.582031-1.039063-1.125-1.621094-1.621094-.855469-.851563-1.792969-1.707031-2.730469-2.472656-.320313-.3125-.664063-.597657-1.027344-.855469-1.121093-.976562-2.320312-1.859375-3.582031-2.644531-1.148438-.90625-2.378906-1.703125-3.667969-2.390625-.863281-.59375-1.777343-1.105469-2.734375-1.535156-1.570312-.871094-3.195312-1.640626-4.863281-2.304688-1.335937-.585938-2.703125-1.097656-4.09375-1.535156-.132813-.070313-.28125-.097656-.429687-.085938-.066407-.066406-.160157-.097656-.253907-.085937-1.109375-.339844-2.304687-.597657-3.414062-.851563-1.109375-.257812-2.390625-.597656-3.582031-.9375-4.949219-.949218-9.996094-1.265625-15.019532-.941406-1.289062.058594-2.570312.203125-3.839844.425781-1.269531.070313-2.527343.269531-3.753906.597657-1.109375.171874-2.136718.429687-3.160156.683593-.167969.085938-.339844.085938-.425781.171875h-.339844c-1.25.308594-2.476563.707032-3.671875 1.195313-1.929688.597656-3.8125 1.339843-5.628906 2.21875h-.085938c-.765625.316406-1.507812.6875-2.21875 1.109375-.386718.164062-.757812.363281-1.109375.597656-.460937.15625-.890625.386719-1.28125.679688-.375.136718-.722656.335937-1.023437.597656-.085938 0-.171875 0-.257813.171875-.992187.472656-1.933593 1.046875-2.8125 1.707031-7.273437 4.917969-13.367187 11.386719-17.835937 18.941406-1.4375 2.4375-2.695313 4.976563-3.753906 7.597656-1.113282 2.648438-2 5.390626-2.648438 8.191407-.820312 3.046875-1.390625 6.160156-1.703125 9.300781l-34.390625 5.375h-51.113281l-34.476563-5.460938c-3.007812-32.257812-31.164062-56.246093-63.488281-54.101562h-.425781c-2.410156.175781-4.804688.515625-7.167969 1.023438-1.269531.203124-2.523437.488281-3.753906.855468-1.878907.511719-3.757813 1.109375-5.632813 1.792969l-1.28125.511719c-1.632812.652344-3.226562 1.390625-4.777344 2.21875-2.410156 1.179687-4.71875 2.550781-6.914062 4.09375-1.519531 1.015625-2.972656 2.125-4.351562 3.328125-1.449219 1.195312-2.816407 2.476562-4.09375 3.753906-.855469.855469-1.707032 1.792969-2.476563 2.730469-2.664063 2.941406-4.980469 6.175781-6.910156 9.644531-.535157.910156-1.019531 1.851563-1.453125 2.816406-.597656 1.007813-1.109375 2.0625-1.535156 3.15625l-28.246094-4.523437-6.144532-.9375-10.578124-80.382813c-.664063-4.890625.808593-9.828125 4.042968-13.550781 3.238282-3.726562 7.917969-5.878906 12.851563-5.90625h404.734375c4.933594.027344 9.617187 2.179688 12.851562 5.90625 3.234375 3.722656 4.707032 8.660156 4.046875 13.550781zm0 0" fill="#4e342e"/><path d="m472.773438 284.582031-5.375 40.875-5.035157 38.140625-.171875 1.625v.082032l-5.972656.941406-12.457031 1.960937 10.921875-4.609375c-.277344-.601562-.621094-1.175781-1.023438-1.703125-.71875-1.265625-1.546875-2.46875-2.476562-3.585937-.78125-1.109375-1.636719-2.164063-2.558594-3.15625-.640625-.855469-1.355469-1.65625-2.132812-2.390625-.5-.582031-1.039063-1.125-1.621094-1.621094-.855469-.851563-1.792969-1.707031-2.730469-2.472656-.320313-.3125-.664063-.597657-1.027344-.855469-1.121093-.976562-2.320312-1.859375-3.582031-2.644531-1.148438-.90625-2.378906-1.703125-3.667969-2.390625l-9.046875 21.847656c-3.132812-5.722656-7.265625-10.839844-12.203125-15.105469l5.460938-13.140625c-1.195313-.34375-2.390625-.597656-3.582031-.9375-4.949219-.949218-9.996094-1.265625-15.019532-.941406-1.289062.058594-2.570312.203125-3.839844.425781-1.269531.070313-2.527343.269531-3.753906.597657-1.109375.171874-2.136718.429687-3.160156.683593l.171875.425781c-.257813-.082031-.339844-.167968-.597656-.253906h-.339844c-4.757813-1.285156-9.664063-1.945312-14.59375-1.964844-24.292969-.242187-46.289063 14.320313-55.550781 36.78125-2.308594 5.582032-3.773438 11.476563-4.351563 17.492188l-3.839843.597656-30.550782 4.777344h-51.113281l-3.753906-.597656c-.003907-1.625-.085938-3.246094-.257813-4.863282-3.007812-32.257812-31.164062-56.246093-63.488281-54.101562h-.425781c-2.410156.175781-4.804688.515625-7.167969 1.023438-1.269531.203124-2.523437.488281-3.753906.855468-26.675781-7.0625-54.707031 5.164063-67.671875 29.523438l-6.144532-.9375-10.578124-80.382813c-.664063-4.890625.808593-9.828125 4.042968-13.550781 3.238282-3.726562 7.917969-5.878906 12.851563-5.90625h374.273437c4.933594.027344 9.613282 2.179688 12.847656 5.90625 3.234376 3.722656 4.710938 8.660156 4.046876 13.550781zm0 0" fill="#795548"/><path d="m238.875 336.839844v-71.714844h-34.132812v43.851562zm0 0" fill="#ffb301"/><path d="m332.742188 332.332031v-67.207031h34.132812v42.128906zm0 0" fill="#ffb301"/><path d="m503.40625 213.847656c0 9.425782-7.640625 17.066406-17.066406 17.066406h-25.597656v34.210938h-34.132813v-85.410156c0-9.425782 7.640625-17.066406 17.066406-17.066406s17.066407 7.640624 17.066407 17.066406v17.066406h25.597656c9.425781 0 17.066406 7.640625 17.066406 17.066406zm0 0" fill="#607d8b"/><path d="m492.65625 365.304688v-.082032c-4.894531-15.191406-13.585938-28.882812-25.257812-39.765625-27.363282-25.660156-67.429688-32.453125-101.71875-17.238281-.085938 0-.171876.085938-.253907.085938-12.582031 5.4375-23.757812 13.664062-32.683593 24.0625-6.726563 7.652343-12.144532 16.359374-16.042969 25.769531-4.066407 9.921875-6.460938 20.445312-7.082031 31.148437-.085938 1.621094-.085938 3.15625-.085938 4.777344.023438 44.761719 31.648438 83.277344 75.550781 92.011719 43.898438 8.734375 87.859375-14.742188 105.015625-56.085938 8.5625-20.558593 9.472656-43.507812 2.558594-64.683593zm-58.792969 80.128906c-4.871093 2.933594-10.167969 5.09375-15.703125 6.402344-9.640625 2.585937-19.785156 2.617187-29.441406.082031-2.800781-.648438-5.539062-1.53125-8.191406-2.644531-2.605469-1.097657-5.140625-2.351563-7.59375-3.753907-8.566406-5.136719-15.71875-12.320312-20.820313-20.90625-2.984375-4.886719-5.171875-10.214843-6.488281-15.785156-1.761719-6.558594-2.339844-13.378906-1.703125-20.140625.3125-3.140625.882813-6.253906 1.703125-9.300781.648438-2.800781 1.535156-5.542969 2.648438-8.191407 1.058593-2.621093 2.316406-5.160156 3.753906-7.597656 4.46875-7.554687 10.5625-14.023437 17.835937-18.941406.878907-.660156 1.820313-1.234375 2.8125-1.707031.085938-.171875.171875-.171875.257813-.171875.300781-.261719.648437-.460938 1.023437-.597656.390625-.292969.820313-.523438 1.28125-.679688.351563-.234375.722657-.433594 1.109375-.597656.710938-.421875 1.453125-.792969 2.21875-1.109375h.085938c1.816406-.878907 3.699218-1.621094 5.628906-2.21875 1.195312-.488281 2.421875-.886719 3.671875-1.195313h.339844c.085937-.085937.257812-.085937.425781-.171875 1.023438-.253906 2.050781-.511719 3.160156-.683593 1.226563-.328126 2.484375-.527344 3.753906-.597657 1.269532-.222656 2.550782-.367187 3.839844-.425781 5.023438-.324219 10.070313-.007812 15.019532.941406 1.191406.253906 2.386718.511719 3.667968.851563 1.128906.234375 2.242188.546875 3.328125.9375.09375-.011719.1875.019531.253907.085937.148437-.011718.296874.015625.429687.085938 1.390625.4375 2.757813.949218 4.09375 1.535156 1.667969.664062 3.292969 1.433594 4.863281 2.304688.957032.429687 1.871094.941406 2.734375 1.535156 1.289063.6875 2.519531 1.484375 3.667969 2.390625 1.261719.785156 2.460938 1.667969 3.582031 2.644531.363281.257812.707031.542969 1.027344.855469.9375.765625 1.875 1.621093 2.730469 2.472656.582031.496094 1.121094 1.039063 1.621094 1.621094.777343.734375 1.492187 1.535156 2.132812 2.390625.921875.992187 1.777344 2.046875 2.558594 3.15625.929687 1.117187 1.757812 2.320312 2.476562 3.585937.402344.527344.746094 1.101563 1.023438 1.703125.574218.84375 1.085937 1.730469 1.535156 2.648438.796875 1.433594 1.507812 2.917968 2.132812 4.4375 1.222657 2.808594 2.191407 5.722656 2.902344 8.703125 2.53125 9.652343 2.5 19.800781-.085937 29.441406-.605469 2.773437-1.464844 5.484375-2.558594 8.105469-1.070313 2.675781-2.382813 5.246094-3.925781 7.679687-5.035156 8.617188-12.207032 15.789063-20.820313 20.820313zm0 0" fill="#37474f"/><path d="m81.433594 365.902344 28.246094 4.523437c.425781-1.09375.9375-2.148437 1.535156-3.15625.433594-.964843.917968-1.90625 1.453125-2.816406 1.929687-3.46875 4.246093-6.703125 6.910156-9.644531.769531-.9375 1.621094-1.875 2.476563-2.730469 1.277343-1.277344 2.644531-2.558594 4.09375-3.753906 1.378906-1.203125 2.832031-2.3125 4.351562-3.328125 2.195312-1.542969 4.503906-2.914063 6.914062-4.09375 1.550782-.828125 3.144532-1.566406 4.777344-2.21875l1.28125-.511719c1.875-.683594 3.753906-1.28125 5.632813-1.792969-26.675781-7.0625-54.707031 5.164063-67.671875 29.523438zm157.441406-29.097656-.171875-.171876c-8.800781-11.425781-20.136719-20.65625-33.109375-26.964843-1.621094-.765625-3.328125-1.621094-5.117188-2.304688-23.007812-9.546875-48.863281-9.5625-71.878906-.039062-23.015625 9.523437-41.300781 27.800781-50.832031 50.8125-.953125 2.230469-1.777344 4.507812-2.476563 6.828125-13.863281 42.460937 4.117188 88.8125 42.988282 110.820312 38.871094 22.003906 87.867187 13.570313 117.140625-20.167968 29.273437-33.734376 30.722656-83.429688 3.457031-118.8125zm-19.199219 80.128906c-7.867187 20.15625-26.019531 34.484375-47.453125 37.453125-21.433594 2.964843-42.796875-5.890625-55.84375-23.152344-13.050781-17.261719-15.742187-40.230469-7.039062-60.039063.085937-.257812.253906-.511718.339844-.769531.425781-1.09375.9375-2.148437 1.535156-3.15625.433594-.964843.917968-1.90625 1.453125-2.816406 1.929687-3.46875 4.246093-6.703125 6.910156-9.644531.769531-.9375 1.621094-1.875 2.476563-2.730469 1.277343-1.277344 2.644531-2.558594 4.09375-3.753906 1.378906-1.203125 2.832031-2.3125 4.351562-3.328125 2.195312-1.542969 4.503906-2.914063 6.914062-4.09375 1.550782-.828125 3.144532-1.566406 4.777344-2.21875l1.28125-.511719c1.875-.683594 3.753906-1.28125 5.632813-1.792969 1.230469-.367187 2.484375-.652344 3.753906-.855468 2.363281-.507813 4.757813-.847657 7.167969-1.023438h.425781c32.324219-2.144531 60.480469 21.84375 63.488281 54.101562.171875 1.617188.253906 3.238282.257813 4.863282.128906 8.050781-1.414063 16.042968-4.523438 23.46875zm-138.242187-51.03125 28.246094 4.523437c.425781-1.09375.9375-2.148437 1.535156-3.15625.433594-.964843.917968-1.90625 1.453125-2.816406 1.929687-3.46875 4.246093-6.703125 6.910156-9.644531.769531-.9375 1.621094-1.875 2.476563-2.730469 1.277343-1.277344 2.644531-2.558594 4.09375-3.753906 1.378906-1.203125 2.832031-2.3125 4.351562-3.328125 2.195312-1.542969 4.503906-2.914063 6.914062-4.09375 1.550782-.828125 3.144532-1.566406 4.777344-2.21875l1.28125-.511719c1.875-.683594 3.753906-1.28125 5.632813-1.792969-26.675781-7.0625-54.707031 5.164063-67.671875 29.523438zm0 0" fill="#37474f"/><path d="m227.585938 367.96875c0-.066406-.09375-.109375-.128907-.1875-14.304687-35.074219-54.3125-51.933594-89.40625-37.675781-35.089843 14.253906-52.007812 54.238281-37.800781 89.351562 14.210938 35.113281 54.171875 52.082031 89.300781 37.925781.652344.015626 1.28125-.222656 1.757813-.667968 34.367187-14.527344 50.582031-54.054688 36.320312-88.53125-.035156-.078125-.019531-.148438-.042968-.214844zm-37.605469 27.433594c0-.851563.058593-1.75 0-2.628906l24.359375-10.09375c1.738281 7.511718 1.738281 15.316406 0 22.828124zm-75.324219-12.722656 24.378906 10.105468c0 .851563-.058594 1.707032 0 2.625l-24.371094 10.097656c-1.730468-7.511718-1.734374-15.316406-.007812-22.828124zm41.972656 8.148437c1.167969-2.816406 3.746094-4.796875 6.769532-5.195313 3.023437-.398437 6.03125.847657 7.886718 3.265626 1.855469 2.417968 2.28125 5.640624 1.113282 8.460937-1.164063 2.816406-3.746094 4.796875-6.769532 5.191406-3.023437.398438-6.03125-.847656-7.886718-3.265625-1.855469-2.421875-2.28125-5.648437-1.113282-8.464844zm51.203125-23.890625-24.371093 10.101562c-.589844-.652343-1.214844-1.269531-1.871094-1.851562l10.105468-24.394531c6.527344 4.082031 12.046876 9.59375 16.136719 16.117187zm-31.898437-22.707031-10.113282 24.402343c-.851562-.042968-1.707031-.058593-2.621093 0l-10.101563-24.402343c3.742188-.890625 7.570313-1.351563 11.417969-1.367188 3.84375.019531 7.675781.480469 11.417969 1.367188zm-38.578125 6.59375 10.074219 24.320312c-.648438.589844-1.253907 1.222657-1.851563 1.871094l-24.328125-10.078125c4.0625-6.527344 9.5625-12.039062 16.078125-16.113281zm-16.15625 70.460937 24.371093-10.09375c.589844.648438 1.214844 1.261719 1.871094 1.84375l-10.113281 24.386719c-6.527344-4.089844-12.042969-9.609375-16.128906-16.136719zm31.898437 22.671875 10.101563-24.378906c.429687 0 .855469.121094 1.28125.121094s.90625-.078125 1.359375-.09375l10.09375 24.351562c-7.515625 1.730469-15.324219 1.726563-22.835938-.007812zm38.597656-6.535156-10.0625-24.292969c.652344-.613281 1.273438-1.257812 1.859376-1.929687l24.347656 10.085937c-4.09375 6.527344-9.613282 12.042969-16.144532 16.128906zm0 0"/><path d="m466.484375 367.96875c-14.484375-34.742188-54.359375-51.207031-89.136719-36.800781-34.773437 14.40625-51.328125 54.242187-37.003906 89.050781 14.085938 34.585938 53.527344 51.21875 88.125 37.164062.363281-.054687.722656-.128906 1.074219-.222656.226562-.136718.449219-.285156.65625-.445312 34.445312-14.570313 50.65625-54.21875 36.292969-88.746094zm-37.589844 27.441406c.050781-.875.050781-1.757812 0-2.636718l24.390625-10.101563c1.75 7.515625 1.75 15.328125 0 22.84375zm-75.332031-12.730468 24.40625 10.105468c-.042969.851563-.058594 1.707032 0 2.625l-24.363281 10.097656c-1.75-7.507812-1.765625-15.316406-.042969-22.828124zm53.121094 19.304687c-3.191406 1.316406-6.859375.585937-9.296875-1.855469-2.441407-2.441406-3.171875-6.113281-1.847657-9.300781.867188-2.085937 2.527344-3.742187 4.617188-4.605469 2.085938-.871094 4.4375-.871094 6.527344 0 2.089844.863282 3.753906 2.527344 4.617187 4.617188.867188 2.09375.867188 4.445312 0 6.535156-.859375 2.089844-2.519531 3.746094-4.609375 4.609375zm40.003906-35.046875-24.320312 10.066406c-.589844-.648437-1.214844-1.269531-1.867188-1.859375l10.074219-24.320312c6.527343 4.074219 12.039062 9.585937 16.113281 16.113281zm-31.855469-22.707031-10.09375 24.378906c-.855469-.042969-1.757812-.042969-2.636719 0l-10.105468-24.390625c7.503906-1.8125 15.332031-1.8125 22.835937 0zm-38.570312 6.59375 10.070312 24.320312c-.652343.589844-1.273437 1.210938-1.863281 1.859375l-24.316406-10.066406c4.066406-6.53125 9.578125-12.042969 16.109375-16.113281zm-16.164063 70.460937 24.371094-10.09375c.59375.644532 1.214844 1.261719 1.871094 1.84375l-10.078125 24.378906c-6.539063-4.082031-12.066407-9.597656-16.164063-16.128906zm31.898438 22.671875 10.105468-24.378906c.425782 0 .851563.128906 1.277344.128906.429688 0 .90625-.078125 1.359375-.101562l10.09375 24.351562c-7.515625 1.730469-15.324219 1.726563-22.835937-.007812zm38.597656-6.535156-10.0625-24.292969c.65625-.597656 1.265625-1.265625 1.871094-1.929687l24.335937 10.085937c-4.089843 6.53125-9.609375 12.046875-16.144531 16.128906zm0 0"/><path d="m74.179688 60.25c12.902343-.050781 25.761718-1.378906 38.402343-3.960938 4.621094-.941406 7.601563-5.453124 6.660157-10.074218-.941407-4.621094-5.453126-7.601563-10.074219-6.660156-21 5.046874-42.890625 5.132812-63.929688.257812-4.480469-1.480469-9.308593.949219-10.789062 5.425781-1.480469 4.476563.949219 9.304688 5.429687 10.785157 11.160156 3.097656 22.722656 4.519531 34.300782 4.226562zm0 0"/><path d="m312.976562 56.058594c11.164063 3.109375 22.722657 4.546875 34.304688 4.265625 12.890625-.078125 25.742188-1.429688 38.367188-4.035157 4.621093-.941406 7.601562-5.453124 6.660156-10.074218s-5.453125-7.601563-10.074219-6.660156c-21 5.046874-42.890625 5.132812-63.929687.257812-2.898438-.957031-6.085938-.296875-8.363282 1.730469-2.277344 2.03125-3.296875 5.121093-2.679687 8.105469.621093 2.988281 2.785156 5.417968 5.683593 6.375zm0 0"/><path d="m213.273438 68.78125c35.839843 0 46.859374-9.191406 48.699218-11.035156 3.386719-3.34375 3.46875-8.785156.191406-12.234375-1.542968-1.625-3.675781-2.554688-5.914062-2.589844-2.238281-.03125-4.394531.839844-5.984375 2.417969-.074219.058594-8.363281 6.375-36.992187 6.375-27.570313 0-36.273438-5.855469-36.957032-6.339844-3.421875-3.242188-8.824218-3.097656-12.066406.324219s-3.097656 8.824219.324219 12.066406c1.84375 1.824219 12.859375 11.015625 48.699219 11.015625zm0 0"/><path d="m486.339844 239.449219c14.140625 0 25.601562-11.460938 25.601562-25.601563 0-14.136718-11.460937-25.597656-25.601562-25.597656h-17.066406v-8.535156c0-14.136719-11.460938-25.601563-25.597657-25.601563-14.140625 0-25.601562 11.464844-25.601562 25.601563v76.875h-48.28125c35.371093-64.066406 73.78125-213.910156 48.640625-247.628906-5.582032-7.652344-15.65625-10.53125-24.441406-6.988282-41.292969 13.800782-98.0625 4.0625-114.6875.710938-2.003907-.382813-4.050782-.484375-6.082032-.300782h-.214844c-2.679687.164063-5.320312.722657-7.832031 1.664063-16.050781 5.992187-33.0625 8.988281-50.195312 8.839844-.5625 0-1.089844 0-1.707031 0h-.085938c-17.753906.332031-35.414062-2.691407-52.050781-8.90625-2.253907-.84375-4.617188-1.359375-7.015625-1.527344-.195313 0-.390625 0-.589844 0h-.296875c-2.054687-.164063-4.125-.058594-6.152344.316406-16.417969 3.308594-73.199219 13.054688-114.484375-.761719-8.585937-3.40625-18.394531-.660156-23.960937 6.714844-26.929688 34.824219 14.445312 198.792969 51.039062 260.558594-2.945312 4.941406-4.148437 10.730469-3.414062 16.433594l10.332031 78.507812c-11.523438 37.507813-.601562 78.304688 28.125 105.039063 28.726562 26.730469 70.203125 34.699219 106.789062 20.507812 36.582032-14.1875 61.84375-48.035156 65.03125-87.148437h34.875c.898438 10.523437 3.40625 20.847656 7.433594 30.609375 21.140625 50.039062 77.671875 74.867187 128.820313 56.570312 51.144531-18.296875 79.105469-73.347656 63.710937-125.441406l10.316406-78.660156c.980469-7.375-1.265624-14.8125-6.164062-20.414063-4.84375-5.523437-11.839844-8.691406-19.191406-8.695312h-17.066406v-17.140625zm-128 62.667969c-6.019532 2.945312-11.738282 6.480468-17.066406 10.546874v-39.003906h17.066406zm-49.492188 52.785156c-4.042968 9.773437-6.546875 20.113281-7.414062 30.652344h-34.910156c-1.527344-18.5625-8.140626-36.34375-19.117188-51.394532v-60.5h76.800781v55.464844c-6.355469 7.792969-11.53125 16.480469-15.359375 25.777344zm-228.691406-18.773438-6.992188-52.65625c-.328124-2.5.4375-5.019531 2.101563-6.914062 1.585937-1.847656 3.902344-2.90625 6.339844-2.898438h114.601562v23.140625c-43.148437-14.234375-90.507812 1.824219-116.101562 39.363281zm78.070312-315.175781c17.652344 6.144531 36.238282 9.183594 54.929688 8.984375h.238281c18.695313.214844 37.28125-2.824219 54.9375-8.976562 9.429688 25.113281 33.628907 112.605468-25.875 235.628906h-58.367187c-59.511719-123.039063-35.292969-210.53125-25.863282-235.636719zm55.046876 252.707031h17.066406v42.007813c-5.277344-4.4375-10.996094-8.324219-17.066406-11.605469zm186.085937-255.5c3.695313-1.246094 4.492187-.136718 5.359375 1.015625 18.390625 24.621094-18.039062 180.4375-54.730469 237.414063h-88.621093c53.640624-115.992188 35.976562-202.050782 25.140624-235.238282 24.617188 4.132813 74.230469 9.738282 112.851563-3.191406zm-377.230469.949219c.851563-1.074219 1.628906-2.089844 5.042969-.957031 38.691406 12.945312 88.414063 7.296875 112.859375 3.199218-10.828125 33.1875-28.492188 119.246094 25.148438 235.238282h-83.574219c-2.957031.046875-5.882813.605468-8.644531 1.65625-36.171876-62.941406-69.332032-215.160156-50.832032-239.136719zm221.21875 407.636719c-15.578125 37.671875-55.601562 59.085937-95.585937 51.148437-39.984375-7.941406-68.785157-43.027343-68.785157-83.792969 0-40.765624 28.800782-75.847656 68.785157-83.789062s80.007812 13.472656 95.585937 51.144531c8.679688 20.898438 8.679688 44.390625 0 65.289063zm238.933594 0c-15.644531 37.53125-55.582031 58.828125-95.464844 50.898437-39.878906-7.925781-68.636718-42.878906-68.734375-83.539062v-.042969c.03125-40.695312 28.792969-75.703125 68.707031-83.632812 39.917969-7.925782 79.875 13.433593 95.457032 51.027343.980468 2.363281 1.808594 4.769531 2.558594 7.1875 6.046874 19.058594 5.140624 39.644531-2.550782 58.101563zm10.433594-150.1875c1.660156 1.902344 2.421875 4.429687 2.082031 6.929687l-6.917969 52.753907c-19.0625-27.875-50.644531-44.550782-84.414062-44.570313-9.488282.011719-18.929688 1.335937-28.058594 3.933594v-21.945313h110.933594c2.441406-.007812 4.757812 1.050782 6.351562 2.898438zm-57.574219-19.96875v-76.875c0-4.710938 3.820313-8.535156 8.535156-8.535156 4.710938 0 8.53125 3.824218 8.53125 8.535156v17.066406c0 4.714844 3.820313 8.535156 8.535157 8.535156h25.597656c4.714844 0 8.535156 3.820313 8.535156 8.53125 0 4.714844-3.820312 8.535156-8.535156 8.535156h-25.597656c-4.714844 0-8.535157 3.820313-8.535157 8.53125v25.675782zm0 0"/></svg>