<svg height="512pt" viewBox="0 -8 512.01748 512" width="512pt" xmlns="http://www.w3.org/2000/svg"><path d="m247.632812 264.867188v1.855468l-71.417968 1.144532-.085938-3c-74.59375-149.890626-31.339844-252.378907-26.484375-262.972657 1.839844.117188 3.65625.503907 5.386719 1.148438 18.175781 6.761719 37.457031 10.054687 56.847656 9.707031 19.390625.347656 38.675782-2.945312 56.851563-9.707031 1.726562-.644531 3.542969-1.03125 5.382812-1.148438 4.855469 10.59375 48.109375 113.082031-26.480469 262.972657zm0 0" fill="#7f6e5d"/><path d="m176.128906 264.867188.085938 3-112.550782 1.855468c-43.609374-66.914062-93.394531-286.011718-41.488281-268.710937 44.84375 15.007812 105.488281 4.589843 122.96875 1.058593 1.484375-.277343 3-.335937 4.5-.175781-4.855469 10.59375-48.109375 113.082031 26.484375 262.972657zm0 0" fill="#cbb292"/><path d="m358.0625 264.867188-110.429688 1.855468v-1.855468c74.589844-149.890626 31.335938-252.378907 26.480469-262.972657 1.503907-.160156 3.019531-.101562 4.503907.175781 17.476562 3.53125 78.125 13.949219 122.96875-1.058593 52.699218-17.566407.527343 200.738281-43.523438 263.855469zm0 0" fill="#cbb292"/><path d="m511.839844 284.996094-10.945313 83.417968v.089844l-35.488281 5.5625c-9.761719-22.855468-32.261719-37.636718-57.113281-37.519531-24.847657.113281-47.210938 15.105469-56.761719 38.046875-2.386719 5.777344-3.902344 11.875-4.5 18.097656l-35.578125 5.5625h-52.875l-35.664063-5.652344c-2.648437-28.070312-23.964843-50.789062-51.8125-55.21875-27.847656-4.429687-55.160156 10.554688-66.390624 36.417969l-35.574219-5.648437-10.945313-83.15625c-.6875-5.058594.839844-10.167969 4.1875-14.019532 3.34375-3.851562 8.1875-6.078124 13.289063-6.109374h418.695312c5.101563.03125 9.945313 2.257812 13.292969 6.109374 3.34375 3.851563 4.871094 8.960938 4.183594 14.019532zm0 0" fill="#cb8252"/><path d="m168.195312 381.976562c9.007813 3.730469 13.285157 14.058594 9.554688 23.066407-3.730469 9.007812-14.058594 13.285156-23.066406 9.554687-9.007813-3.730468-13.285156-14.058594-9.554688-23.066406 3.730469-9.011719 14.058594-13.289062 23.066406-9.554688zm0 0" fill="#fff"/><g fill="#7f5b53"><path d="m161.402344 424.761719c-11.660156-.015625-21.9375-7.660157-25.3125-18.824219-3.371094-11.160156.953125-23.214844 10.65625-29.6875 9.699218-6.472656 22.492187-5.835938 31.503906 1.5625 9.011719 7.402344 12.121094 19.828125 7.660156 30.601562-4.117187 9.898438-13.785156 16.351563-24.507812 16.347657zm.054687-35.308594c-4.425781-.003906-8.167969 3.273437-8.75 7.660156-.585937 4.386719 2.167969 8.527344 6.4375 9.683594 4.269531 1.160156 8.738281-1.023437 10.449219-5.101563.898438-2.164062.898438-4.597656 0-6.761718-.898438-2.164063-2.617188-3.882813-4.78125-4.777344-1.0625-.453125-2.203125-.691406-3.355469-.703125zm0 0"/><path d="m218.519531 430.765625c-1.160156-.003906-2.304687-.234375-3.375-.679687l-40.773437-16.914063c-4.503906-1.867187-6.644532-7.035156-4.777344-11.539063 1.867188-4.503906 7.035156-6.640624 11.539062-4.773437l40.773438 16.894531c3.894531 1.609375 6.105469 5.75 5.285156 9.878906-.824218 4.132813-4.453125 7.109376-8.664062 7.105469zm0 0"/><path d="m145.117188 400.363281c-1.160157-.003906-2.304688-.234375-3.371094-.679687l-40.777344-16.898438c-2.914062-1.207031-4.960938-3.878906-5.371094-7.003906-.414062-3.128906.875-6.238281 3.378906-8.15625 2.503907-1.921875 5.839844-2.359375 8.753907-1.152344l40.777343 16.898438c3.890626 1.609375 6.101563 5.746094 5.28125 9.878906-.824218 4.132812-4.449218 7.105469-8.664062 7.101562zm0 0"/><path d="m137.78125 464.203125c-2.949219 0-5.699219-1.476563-7.335938-3.925781-1.636718-2.453125-1.941406-5.558594-.8125-8.28125l16.921876-40.777344c1.207031-2.914062 3.878906-4.960938 7.007812-5.371094 3.125-.410156 6.234375.878906 8.15625 3.378906 1.917969 2.503907 2.359375 5.839844 1.148438 8.753907l-16.894532 40.777343c-1.371094 3.308594-4.609375 5.460938-8.191406 5.445313zm0 0"/><path d="m168.191406 390.800781c-2.945312 0-5.699218-1.472656-7.335937-3.925781s-1.941407-5.558594-.8125-8.28125l16.898437-40.773438c1.207032-2.914062 3.878906-4.964843 7.003906-5.375 3.128907-.410156 6.238282.878907 8.15625 3.382813 1.921876 2.5 2.359376 5.839844 1.152344 8.753906l-16.898437 40.773438c-1.367188 3.300781-4.589844 5.449219-8.164063 5.445312zm0 0"/><path d="m177.753906 400.363281c-4.214844 0-7.84375-2.972656-8.664062-7.105469-.824219-4.132812 1.386718-8.269531 5.28125-9.878906l40.773437-16.898437c4.507813-1.867188 9.671875.273437 11.539063 4.777343 1.867187 4.503907-.269532 9.671876-4.777344 11.539063l-40.773438 16.894531c-1.070312.445313-2.21875.671875-3.378906.671875zm0 0"/><path d="m104.351562 430.765625c-4.214843 0-7.839843-2.972656-8.664062-7.105469-.824219-4.132812 1.390625-8.269531 5.28125-9.878906l40.777344-16.898438c2.914062-1.207031 6.25-.769531 8.753906 1.152344 2.5 1.917969 3.789062 5.027344 3.378906 8.15625s-2.457031 5.796875-5.371094 7.007813l-40.792968 16.886719c-1.066406.441406-2.210938.675781-3.363282.679687zm0 0"/><path d="m185.085938 464.203125c-3.570313 0-6.789063-2.152344-8.15625-5.457031l-16.894532-40.773438c-1.867187-4.503906.269532-9.667968 4.777344-11.535156 4.503906-1.867188 9.667969.269531 11.535156 4.773438l16.898438 40.800781c1.128906 2.722656.824218 5.832031-.8125 8.28125-1.636719 2.453125-4.390625 3.925781-7.335938 3.929687zm0 0"/><path d="m154.6875 390.800781c-3.574219 0-6.792969-2.152343-8.160156-5.453125l-16.894532-40.777344c-1.207031-2.914062-.769531-6.25 1.152344-8.753906 1.917969-2.5 5.027344-3.789062 8.15625-3.378906 3.125.410156 5.796875 2.457031 7.003906 5.371094l16.898438 40.777344c1.128906 2.722656.824219 5.828124-.8125 8.28125-1.636719 2.449218-4.390625 3.925781-7.335938 3.925781zm0 0"/></g><path d="m415.339844 381.976562c9.007812 3.730469 13.285156 14.058594 9.554687 23.066407-3.734375 9.007812-14.058593 13.285156-23.070312 9.554687-9.007813-3.730468-13.285157-14.058594-9.554688-23.066406 3.734375-9.007812 14.058594-13.289062 23.070313-9.554688zm0 0" fill="#fff"/><path d="m408.539062 424.769531c-11.660156-.011719-21.941406-7.648437-25.320312-18.808593-3.378906-11.164063.941406-23.222657 10.640625-29.695313 9.699219-6.476563 22.492187-5.847656 31.507813 1.550781 9.015624 7.398438 12.128906 19.820313 7.667968 30.597656-4.097656 9.910157-13.769531 16.367188-24.496094 16.355469zm.054688-35.308593c-1.164062 0-2.316406.230468-3.390625.679687-3.6875 1.527344-5.886719 5.34375-5.371094 9.300781.519531 3.957032 3.628907 7.074219 7.585938 7.601563 3.957031.527343 7.777343-1.664063 9.316406-5.347657 1.125-2.722656.824219-5.828124-.8125-8.277343-1.632813-2.453125-4.382813-3.925781-7.328125-3.929688zm0 0" fill="#7f5b53"/><path d="m465.664062 430.765625c-1.15625-.003906-2.304687-.234375-3.371093-.679687l-40.785157-16.914063c-2.914062-1.207031-4.960937-3.878906-5.371093-7.007813-.414063-3.125.875-6.234374 3.378906-8.15625 2.503906-1.917968 5.839844-2.359374 8.753906-1.148437l40.785157 16.894531c3.890624 1.609375 6.105468 5.75 5.28125 9.878906-.824219 4.132813-4.449219 7.109376-8.664063 7.105469zm0 0" fill="#7f5b53"/><path d="m392.261719 400.363281c-1.15625-.003906-2.304688-.234375-3.371094-.679687l-40.785156-16.898438c-2.914063-1.207031-4.960938-3.878906-5.371094-7.003906-.410156-3.128906.875-6.238281 3.378906-8.15625 2.503907-1.921875 5.839844-2.359375 8.753907-1.152344l40.785156 16.898438c3.894531 1.609375 6.105468 5.746094 5.28125 9.878906-.820313 4.132812-4.449219 7.105469-8.664063 7.101562zm0 0" fill="#7f5b53"/><path d="m384.898438 464.203125c-2.9375-.011719-5.675782-1.488281-7.304688-3.933594-1.628906-2.445312-1.933594-5.539062-.816406-8.257812l16.890625-40.773438c1.867187-4.503906 7.03125-6.644531 11.535156-4.777343 4.503906 1.867187 6.644531 7.035156 4.777344 11.539062l-16.886719 40.773438c-1.378906 3.304687-4.613281 5.449218-8.195312 5.429687zm0 0" fill="#7f5b53"/><path d="m415.328125 390.800781c-2.945313 0-5.699219-1.472656-7.335937-3.925781-1.636719-2.453125-1.941407-5.558594-.8125-8.28125l16.898437-40.773438c1.207031-2.914062 3.878906-4.964843 7.003906-5.375 3.128907-.410156 6.238281.878907 8.15625 3.382813 1.921875 2.5 2.359375 5.839844 1.152344 8.753906l-16.894531 40.773438c-1.371094 3.300781-4.59375 5.449219-8.167969 5.445312zm0 0" fill="#7f5b53"/><path d="m424.890625 400.363281c-4.214844 0-7.84375-2.972656-8.664063-7.105469-.824218-4.132812 1.390626-8.269531 5.28125-9.878906l40.785157-16.898437c4.503906-1.867188 9.667969.273437 11.535156 4.777343 1.867187 4.503907-.269531 9.671876-4.773437 11.539063l-40.785157 16.894531c-1.070312.445313-2.21875.671875-3.378906.671875zm0 0" fill="#7f5b53"/><path d="m351.488281 430.765625c-4.214843 0-7.839843-2.972656-8.664062-7.105469-.820313-4.132812 1.390625-8.269531 5.28125-9.878906l40.785156-16.898438c4.503906-1.867187 9.671875.273438 11.539063 4.777344 1.867187 4.503906-.273438 9.671875-4.777344 11.539063l-40.765625 16.886719c-1.078125.449218-2.230469.679687-3.398438.679687zm0 0" fill="#7f5b53"/><path d="m432.226562 464.203125c-3.574218 0-6.792968-2.152344-8.160156-5.457031l-16.894531-40.773438c-1.207031-2.914062-.769531-6.25 1.152344-8.753906 1.917969-2.503906 5.027343-3.792969 8.15625-3.378906 3.125.410156 5.796875 2.457031 7.003906 5.371094l16.898437 40.800781c1.128907 2.722656.824219 5.832031-.8125 8.28125-1.636718 2.453125-4.390624 3.925781-7.335937 3.929687zm0 0" fill="#7f5b53"/><path d="m401.824219 390.800781c-3.574219 0-6.792969-2.152343-8.15625-5.453125l-16.890625-40.777344c-1.207032-2.914062-.769532-6.25 1.152344-8.753906 1.917968-2.5 5.027343-3.789062 8.15625-3.378906 3.128906.410156 5.796874 2.457031 7.007812 5.371094l16.886719 40.777344c1.128906 2.722656.824219 5.828124-.8125 8.28125-1.636719 2.449218-4.390625 3.925781-7.335938 3.925781zm0 0" fill="#7f5b53"/><path d="m238.363281 339.054688v-74.1875h-35.3125v45.367187zm0 0" fill="#805333"/><path d="m335.464844 334.394531v-69.527343h35.3125v43.582031zm0 0" fill="#805333"/><path d="m67.988281 52.925781c-11.984375.292969-23.945312-1.195312-35.492187-4.414062-4.632813-1.53125-7.148438-6.527344-5.617188-11.15625 1.53125-4.632813 6.527344-7.144531 11.160156-5.617188 21.765626 5.042969 44.410157 4.953125 66.136719-.261719 3.097657-.632812 6.300781.4375 8.398438 2.804688 2.097656 2.367188 2.773437 5.675781 1.769531 8.675781-1.003906 3.003907-3.53125 5.242188-6.628906 5.875-13.074219 2.671875-26.382813 4.042969-39.726563 4.09375zm0 0" fill="#7f6e5d"/><path d="m350.472656 52.925781c-11.984375.292969-23.945312-1.195312-35.496094-4.414062-2.996093-.988281-5.234374-3.503907-5.875-6.59375-.640624-3.089844.414063-6.285157 2.769532-8.386719 2.355468-2.097656 5.652344-2.78125 8.648437-1.792969 21.769531 5.046875 44.410157 4.953125 66.136719-.261719 3.101562-.632812 6.304688.4375 8.402344 2.804688s2.769531 5.675781 1.769531 8.675781c-1.003906 3.003907-3.53125 5.242188-6.632813 5.875-13.074218 2.671875-26.378906 4.042969-39.722656 4.09375zm0 0" fill="#7f6e5d"/><path d="m211.878906 61.753906c-37.074218 0-48.472656-9.507812-50.378906-11.414062-3.347656-3.390625-3.402344-8.824219-.125-12.28125 3.28125-3.457032 8.710938-3.6875 12.273438-.519532.703124.503907 9.710937 6.558594 38.230468 6.558594 29.617188 0 38.1875-6.523437 38.269532-6.59375 1.640624-1.632812 3.871093-2.53125 6.183593-2.5 2.316407.035156 4.519531 1 6.113281 2.675782 3.40625 3.570312 3.324219 9.210937-.1875 12.675781-1.90625 1.890625-13.300781 11.398437-50.378906 11.398437zm0 0" fill="#59474e"/><path d="m512.015625 211.824219c0 9.75-7.902344 17.652343-17.652344 17.652343h-26.484375v35.390626h-35.308594v-88.355469c0-9.75 7.902344-17.65625 17.652344-17.65625 9.753906 0 17.65625 7.90625 17.65625 17.65625v17.65625h26.484375c9.75 0 17.652344 7.902343 17.652344 17.65625zm0 0" fill="#7f5b53"/><path d="m198.636719 308.5625c-23.796875-9.875-50.542969-9.890625-74.351563-.039062-23.808594 9.851562-42.726562 28.761718-52.585937 52.566406-.984375 2.304687-1.839844 4.660156-2.5625 7.0625-16.328125 50.050781 10.207031 104 59.820312 121.617187 49.617188 17.621094 104.234375-7.511719 123.128907-56.652343 18.898437-49.140626-4.8125-104.390626-53.449219-124.554688zm19.863281 113.347656c-8.136719 20.851563-26.917969 35.671875-49.089844 38.742188-22.171875 3.070312-44.273437-6.089844-57.769531-23.945313-13.496094-17.859375-16.28125-41.617187-7.28125-62.113281.089844-.265625.265625-.527344.351563-.792969 11.230468-25.863281 38.542968-40.847656 66.390624-36.417969 27.847657 4.429688 49.164063 27.148438 51.8125 55.21875.976563 9.984376-.542968 20.054688-4.414062 29.308594zm0 0" fill="#59474e"/><path d="m500.894531 368.503906v-.089844c-13.824219-42.738281-55.15625-70.417968-99.941406-66.925781-44.78125 3.492188-81.328125 37.242188-88.355469 81.609375-7.03125 44.367188 17.285156 87.765625 58.796875 104.929688 11.785157 4.867187 24.410157 7.386718 37.164063 7.417968 31.039062-.023437 60.199218-14.882812 78.457031-39.984374 18.257813-25.101563 23.417969-57.417969 13.878906-86.957032zm-35.222656 53.40625c-11.671875 28.230469-42.21875 43.695313-71.878906 36.390625-29.664063-7.304687-49.535157-35.1875-46.761719-65.609375.597656-6.222656 2.113281-12.320312 4.5-18.097656 13.523438-30.785156 49.179688-45.109375 80.238281-32.230469 31.0625 12.875 46.128907 48.222657 33.902344 79.546875zm0 0" fill="#59474e"/></svg>