<svg height="503pt" viewBox="0 -8 503.19744 503" width="503pt" xmlns="http://www.w3.org/2000/svg"><path d="m163.75 399.867188c1.894531-4.582032-.285156-9.835938-4.867188-11.730469-1.085937-.449219-2.25-.683594-3.421874-.683594-4.511719-.003906-8.324219 3.335937-8.917969 7.808594-.589844 4.46875 2.226562 8.683593 6.582031 9.851562s8.902344-1.078125 10.625-5.246093zm0 0"/><path d="m155.414062 423.339844c-.449218 0-.898437-.109375-1.347656-.136719l-10.632812 25.671875c7.90625 1.824219 16.125 1.824219 24.035156 0l-10.625-25.652344c-.476562 0-.953125.117188-1.429688.117188zm0 0"/><path d="m109.855469 425.019531c4.300781 6.875 10.105469 12.683594 16.976562 16.984375l10.636719-25.679687c-.691406-.613281-1.347656-1.257813-1.96875-1.941407zm0 0"/><path d="m128.628906 395.019531-25.671875-10.636719c-1.820312 7.90625-1.820312 16.121094 0 24.027344l25.671875-10.625c-.046875-.921875-.046875-1.84375 0-2.765625zm0 0"/><path d="m173.46875 416.421875 10.601562 25.574219c6.871094-4.300782 12.679688-10.105469 16.984376-16.976563l-25.628907-10.625c-.613281.707031-1.269531 1.386719-1.957031 2.027344zm0 0"/><path d="m182.273438 395.007812c.046874.921876.046874 1.847657 0 2.769532l25.671874 10.632812c1.820313-7.90625 1.820313-16.121094 0-24.027344zm0 0"/><path d="m143.433594 343.90625 10.632812 25.671875c.921875-.046875 1.847656-.046875 2.765625 0l10.644531-25.6875c-7.898437-1.910156-16.144531-1.910156-24.042968 0zm0 0"/><path d="m201.046875 367.78125c-4.300781-6.875-10.109375-12.6875-16.988281-16.992188l-10.632813 25.726563c.6875.609375 1.34375 1.257813 1.964844 1.9375zm0 0"/><path d="m257.402344 251.65625h93.28125c38.625-59.972656 76.960937-223.992188 57.605468-249.910156-.898437-1.210938-1.75-2.378906-5.640624-1.074219-40.65625 13.617187-92.878907 7.707031-118.792969 3.367187 11.417969 34.933594 30.007812 125.519532-26.453125 247.617188zm48.640625-222.492188c1.578125-4.679687 6.636719-7.207031 11.324219-5.660156 22.152343 5.132813 45.191406 5.039063 67.296874-.269531 3.222657-.847656 6.652344.15625 8.90625 2.613281 2.253907 2.457032 2.960938 5.957032 1.839844 9.09375-1.121094 3.140625-3.886718 5.398438-7.1875 5.871094-13.28125 2.714844-26.796875 4.109375-40.351562 4.167969-12.195313.296875-24.367188-1.214844-36.117188-4.492188-4.699218-1.554687-7.253906-6.621093-5.710937-11.324219zm0 0"/><path d="m341.511719 310.679688c5.609375-4.28125 11.628906-8 17.964843-11.101563v-29.957031h-17.964843zm0 0"/><path d="m458.285156 224.628906c0-4.960937 4.023438-8.980468 8.984375-8.980468h26.945313c4.960937 0 8.984375-4.023438 8.984375-8.984376 0-4.960937-4.023438-8.980468-8.984375-8.980468h-26.945313c-4.960937 0-8.984375-4.023438-8.984375-8.984375v-17.964844c0-4.960937-4.023437-8.980469-8.984375-8.980469-4.957031 0-8.980469 4.019532-8.980469 8.980469v80.921875h17.964844zm0 0"/><path d="m155.476562 288.585938c11.328126.019531 22.578126 1.835937 33.335938 5.386718v-24.351562h-120.636719c-2.5625-.003906-5 1.109375-6.671875 3.054687-1.75 1.996094-2.558594 4.652344-2.210937 7.285157l7.304687 55.46875c20.046875-29.363282 53.324219-46.902344 88.878906-46.84375zm0 0"/><path d="m137.46875 376.449219-10.636719-25.597657c-6.871093 4.285157-12.671875 10.085938-16.957031 16.957032l25.617188 10.609375c.625-.6875 1.285156-1.347657 1.976562-1.96875zm0 0"/><path d="m156.152344 251.65625c-56.464844-122.097656-37.871094-212.683594-26.464844-247.617188-25.734375 4.3125-78.074219 10.257813-118.800781-3.367187-3.59375-1.195313-4.4375-.128906-5.316407 1.003906-19.476562 25.242188 15.429688 185.46875 53.507813 251.726563 2.90625-1.109375 5.988281-1.699219 9.097656-1.746094zm-131.863282-211.085938c-4.714843-1.558593-7.269531-6.640624-5.714843-11.355468 1.558593-4.710938 6.644531-7.269532 11.355469-5.710938 22.148437 5.128906 45.1875 5.039063 67.296874-.269531 3.222657-.847656 6.652344.15625 8.90625 2.613281 2.253907 2.457032 2.960938 5.957032 1.839844 9.09375-1.121094 3.140625-3.890625 5.398438-7.1875 5.871094-13.304687 2.71875-26.84375 4.117188-40.421875 4.167969-12.175781.320312-24.332031-1.167969-36.074219-4.410157zm0 0"/><path d="m197.792969 251.65625h39.703125c62.636718-129.5 37.160156-221.59375 27.226562-248.03125-18.582031 6.476562-38.152344 9.671875-57.828125 9.449219h-.253906c-19.671875.207031-39.234375-2.992188-57.820313-9.457031-9.878906 26.425781-35.417968 118.566406 27.226563 248.039062zm-42.28125-222.007812c3.378906-3.378907 8.8125-3.519532 12.363281-.324219.71875.511719 9.878906 6.675781 38.902344 6.675781 30.136718 0 38.855468-6.640625 38.9375-6.710938 1.671875-1.660156 3.941406-2.578124 6.292968-2.542968 2.355469.03125 4.597657 1.015625 6.21875 2.722656 3.46875 3.628906 3.386719 9.371094-.1875 12.898438-1.941406 1.921874-13.535156 11.597656-51.261718 11.597656-37.726563 0-49.324219-9.675782-51.265625-11.597656-1.6875-1.6875-2.636719-3.972657-2.636719-6.359376 0-2.386718.949219-4.675781 2.636719-6.359374zm0 0"/><path d="m224.742188 313.84375v-44.222656h-17.964844v32.007812c6.386718 3.449219 12.40625 7.542969 17.964844 12.214844zm0 0"/><path d="m452.472656 367.808594c-4.285156-6.871094-10.085937-12.671875-16.957031-16.957032l-10.601563 25.597657c.6875.621093 1.339844 1.28125 1.960938 1.96875zm0 0"/><path d="m394.90625 343.898438 10.632812 25.671874c.925782-.046874 1.851563-.046874 2.777344 0l10.625-25.664062c-7.898437-1.90625-16.136718-1.90625-24.035156 0zm0 0"/><path d="m424.941406 416.421875 10.601563 25.574219c6.871093-4.300782 12.679687-10.105469 16.984375-16.976563l-25.625-10.617187c-.617188.707031-1.273438 1.382812-1.960938 2.019531zm0 0"/><path d="m494.214844 269.621094h-116.773438v23.105468c23.363282-6.683593 48.300782-5.242187 70.738282 4.085938 19.308593 7.96875 35.859374 21.417969 47.605468 38.6875l7.285156-55.53125c.359376-2.632812-.445312-5.292969-2.199218-7.292969-1.667969-1.9375-4.097656-3.054687-6.65625-3.054687zm0 0"/><path d="m410.355469 404.699219c2.199219-.90625 3.945312-2.65625 4.851562-4.859375 1.144531-2.765625.835938-5.925782-.824219-8.421875-1.664062-2.492188-4.460937-3.992188-7.460937-4-1.183594 0-2.355469.238281-3.449219.691406-2.195312.910156-3.945312 2.65625-4.859375 4.851563-1.390625 3.355468-.621093 7.21875 1.945313 9.789062s6.429687 3.339844 9.789062 1.949219zm0 0"/><path d="m492.589844 369.605469c-.800782-2.539063-1.679688-5.074219-2.695313-7.570313-16.386719-39.597656-58.464843-62.105468-100.5-53.753906-42.035156 8.347656-72.3125 45.230469-72.324219 88.085938-.054687 35.386718 20.671876 67.511718 52.9375 82.042968 32.269532 14.53125 70.0625 8.765625 96.523438-14.730468 26.464844-23.496094 36.667969-60.339844 26.058594-94.101563zm-19.269532 54.292969c-7.195312 17.320312-20.914062 31.117187-38.191406 38.417968-.226562.164063-.460937.320313-.699218.464844-.375.101562-.75.175781-1.132813.226562-36.40625 14.625-77.800781-2.824218-92.746094-39.101562-15.1875-36.667969 2.21875-78.703125 38.886719-93.894531 36.664062-15.191407 78.703125 2.21875 93.894531 38.886719 7.339844 17.597656 7.332031 37.402343-.019531 55zm0 0"/><path d="m433.746094 395.007812c.046875.925782.046875 1.851563 0 2.777344l25.671875 10.632813c1.832031-7.910157 1.832031-16.132813 0-24.042969zm0 0"/><path d="m380.136719 395.019531-25.6875-10.636719c-1.820313 7.90625-1.820313 16.121094 0 24.027344l25.6875-10.625c-.046875-.921875-.046875-1.84375 0-2.765625zm0 0"/><path d="m388.941406 376.449219-10.601562-25.597657c-6.871094 4.285157-12.671875 10.085938-16.957032 16.957032l25.601563 10.601562c.617187-.6875 1.269531-1.339844 1.957031-1.960937zm0 0"/><path d="m406.886719 423.347656c-.449219 0-.898438-.105468-1.355469-.132812l-10.625 25.660156c7.90625 1.824219 16.121094 1.824219 24.027344 0l-10.617188-25.652344c-.476562 0-.945312.125-1.429687.125zm0 0"/><path d="m189.828125 313.414062c-39.628906-16.472656-85.375-2.652343-109.25 33.007813s-19.230469 83.21875 11.09375 113.585937c30.328125 30.363282 77.882813 35.070313 113.574219 11.242188 35.6875-23.832031 49.570312-69.558594 33.148437-109.207031-9.050781-22.042969-26.539062-39.550781-48.566406-48.628907zm32.011719 110.484376c-7.199219 17.3125-20.910156 31.109374-38.183594 38.40625-.226562.171874-.460938.328124-.703125.476562-.371094.105469-.753906.183594-1.140625.234375-36.691406 14.476563-78.191406-3.386719-92.898438-39.988281-14.707031-36.605469 2.894532-78.214844 39.40625-93.148438 36.511719-14.9375 78.230469 2.40625 93.394532 38.820313 0 .070312.097656.117187.125.1875.027344.074219 0 .152343 0 .226562 7.257812 17.539063 7.257812 37.242188 0 54.785157zm0 0"/><path d="m361.328125 425.019531c4.3125 6.875 10.128906 12.679688 17.011719 16.976563l10.636718-25.679688c-.6875-.613281-1.34375-1.261718-1.96875-1.941406zm0 0"/><path d="m323.546875 269.621094h-80.839844v63.6875c11.546875 15.84375 18.507813 34.5625 20.121094 54.101562h36.710937c1.796876-21.777344 10.171876-42.492187 24.007813-59.402344zm0 0"/></svg>